<?xml version="1.0" encoding="UTF-8" standalone="no"?>
<!DOCTYPE svg PUBLIC "-//W3C//DTD SVG 1.1//EN"
 "http://www.w3.org/Graphics/SVG/1.1/DTD/svg11.dtd">
<!-- Generated by graphviz version 14.1.1 (20251213.1925)
 -->
<!-- Title: LoopMax::Core::WebManager Pages: 1 -->
<svg width="401pt" height="96pt"
 viewBox="0.00 0.00 401.00 96.00" xmlns="http://www.w3.org/2000/svg" xmlns:xlink="http://www.w3.org/1999/xlink">
<g id="graph0" class="graph" transform="scale(1 1) rotate(0) translate(4 92)">
<title>LoopMax::Core::WebManager</title>
<!-- Node1 -->
<g id="Node000001" class="node">
<title>Node1</title>
<g id="a_Node000001"><a xlink:title=" ">
<polygon fill="#999999" stroke="#666666" points="267.25,-20 121.5,-20 121.5,0 267.25,0 267.25,-20"/>
<text xml:space="preserve" text-anchor="middle" x="194.38" y="-6.5" font-family="Helvetica,sans-Serif" font-size="10.00">LoopMax::Core::WebManager</text>
</a>
</g>
</g>
<!-- Node2 -->
<g id="Node000002" class="node">
<title>Node2</title>
<g id="a_Node000002"><a xlink:href="class_loop_max_1_1_core_1_1_i_service.html" target="_top" xlink:title=" ">
<polygon fill="white" stroke="#bfbfbf" points="124.75,-82 0,-82 0,-62 124.75,-62 124.75,-82"/>
<text xml:space="preserve" text-anchor="middle" x="62.38" y="-68.5" font-family="Helvetica,sans-Serif" font-size="10.00">LoopMax::Core::IService</text>
</a>
</g>
</g>
<!-- Node2&#45;&gt;Node1 -->
<g id="edge1_Node000001_Node000002" class="edge">
<title>Node2&#45;&gt;Node1</title>
<g id="a_edge1_Node000001_Node000002"><a xlink:title=" ">
<path fill="none" stroke="#63b8ff" d="M93.34,-56.92C118.19,-45.63 152.35,-30.1 173.89,-20.31"/>
<polygon fill="#63b8ff" stroke="#63b8ff" points="92.03,-53.67 84.38,-61 94.93,-60.05 92.03,-53.67"/>
</a>
</g>
</g>
<!-- Node3 -->
<g id="Node000003" class="node">
<title>Node3</title>
<g id="a_Node000003"><a xlink:href="class_loop_max_1_1_core_1_1_hal_1_1_i_hal___web.html" target="_top" xlink:title=" ">
<polygon fill="white" stroke="#bfbfbf" points="246.25,-88 142.5,-88 142.5,-56 246.25,-56 246.25,-88"/>
<text xml:space="preserve" text-anchor="start" x="150.5" y="-74.5" font-family="Helvetica,sans-Serif" font-size="10.00">LoopMax::Core::Hal</text>
<text xml:space="preserve" text-anchor="middle" x="194.38" y="-62.5" font-family="Helvetica,sans-Serif" font-size="10.00">::IHal_Web</text>
</a>
</g>
</g>
<!-- Node3&#45;&gt;Node1 -->
<g id="edge2_Node000001_Node000003" class="edge">
<title>Node3&#45;&gt;Node1</title>
<g id="a_edge2_Node000001_Node000003"><a xlink:title=" ">
<path fill="none" stroke="#63b8ff" d="M194.38,-44.08C194.38,-35.6 194.38,-26.8 194.38,-20.41"/>
<polygon fill="#63b8ff" stroke="#63b8ff" points="190.88,-44.03 194.38,-54.03 197.88,-44.03 190.88,-44.03"/>
</a>
</g>
</g>
<!-- Node4 -->
<g id="Node000004" class="node">
<title>Node4</title>
<g id="a_Node000004"><a xlink:href="class_loop_max_1_1_services_1_1_i_web.html" target="_top" xlink:title=" ">
<polygon fill="white" stroke="#bfbfbf" points="392.62,-82 264.12,-82 264.12,-62 392.62,-62 392.62,-82"/>
<text xml:space="preserve" text-anchor="middle" x="328.38" y="-68.5" font-family="Helvetica,sans-Serif" font-size="10.00">LoopMax::Services::IWeb</text>
</a>
</g>
</g>
<!-- Node4&#45;&gt;Node1 -->
<g id="edge3_Node000001_Node000004" class="edge">
<title>Node4&#45;&gt;Node1</title>
<g id="a_edge3_Node000001_Node000004"><a xlink:title=" ">
<path fill="none" stroke="#63b8ff" d="M296.94,-56.92C271.72,-45.63 237.04,-30.1 215.17,-20.31"/>
<polygon fill="#63b8ff" stroke="#63b8ff" points="295.5,-60.11 306.06,-61.01 298.36,-53.73 295.5,-60.11"/>
</a>
</g>
</g>
</g>
</svg>
