<?xml version="1.0" encoding="UTF-8" standalone="no"?>
<!DOCTYPE svg PUBLIC "-//W3C//DTD SVG 1.1//EN"
 "http://www.w3.org/Graphics/SVG/1.1/DTD/svg11.dtd">
<!-- Generated by graphviz version 14.1.1 (20251213.1925)
 -->
<!-- Title: LoopMax::Core::Hal::IHal_Mqtts Pages: 1 -->
<svg width="299pt" height="128pt"
 viewBox="0.00 0.00 299.00 128.00" xmlns="http://www.w3.org/2000/svg" xmlns:xlink="http://www.w3.org/1999/xlink">
<g id="graph0" class="graph" transform="scale(1 1) rotate(0) translate(4 124)">
<title>LoopMax::Core::Hal::IHal_Mqtts</title>
<!-- Node1 -->
<g id="Node000001" class="node">
<title>Node1</title>
<g id="a_Node000001"><a xlink:title=" ">
<polygon fill="#999999" stroke="#666666" points="103.75,-70 0,-70 0,-38 103.75,-38 103.75,-70"/>
<text xml:space="preserve" text-anchor="start" x="8" y="-56.5" font-family="Helvetica,sans-Serif" font-size="10.00">LoopMax::Core::Hal</text>
<text xml:space="preserve" text-anchor="middle" x="51.88" y="-44.5" font-family="Helvetica,sans-Serif" font-size="10.00">::IHal_Mqtts</text>
</a>
</g>
</g>
<!-- Node2 -->
<g id="Node000002" class="node">
<title>Node2</title>
<g id="a_Node000002"><a xlink:href="class_loop_max_1_1_core_1_1_hal_1_1ard__mqtts.html" target="_top" xlink:title=" ">
<polygon fill="white" stroke="#bfbfbf" points="267.12,-120 163.38,-120 163.38,-88 267.12,-88 267.12,-120"/>
<text xml:space="preserve" text-anchor="start" x="171.38" y="-106.5" font-family="Helvetica,sans-Serif" font-size="10.00">LoopMax::Core::Hal</text>
<text xml:space="preserve" text-anchor="middle" x="215.25" y="-94.5" font-family="Helvetica,sans-Serif" font-size="10.00">::ard_mqtts</text>
</a>
</g>
</g>
<!-- Node1&#45;&gt;Node2 -->
<g id="edge1_Node000001_Node000002" class="edge">
<title>Node1&#45;&gt;Node2</title>
<g id="a_edge1_Node000001_Node000002"><a xlink:title=" ">
<path fill="none" stroke="#63b8ff" d="M114.76,-73.17C130.69,-78.11 147.65,-83.36 162.97,-88.11"/>
<polygon fill="#63b8ff" stroke="#63b8ff" points="115.97,-69.88 105.38,-70.27 113.9,-76.57 115.97,-69.88"/>
</a>
</g>
</g>
<!-- Node3 -->
<g id="Node000003" class="node">
<title>Node3</title>
<g id="a_Node000003"><a xlink:href="class_loop_max_1_1_core_1_1_hal_1_1idf__mqtts.html" target="_top" xlink:title=" ">
<polygon fill="white" stroke="#bfbfbf" points="267.12,-70 163.38,-70 163.38,-38 267.12,-38 267.12,-70"/>
<text xml:space="preserve" text-anchor="start" x="171.38" y="-56.5" font-family="Helvetica,sans-Serif" font-size="10.00">LoopMax::Core::Hal</text>
<text xml:space="preserve" text-anchor="middle" x="215.25" y="-44.5" font-family="Helvetica,sans-Serif" font-size="10.00">::idf_mqtts</text>
</a>
</g>
</g>
<!-- Node1&#45;&gt;Node3 -->
<g id="edge2_Node000001_Node000003" class="edge">
<title>Node1&#45;&gt;Node3</title>
<g id="a_edge2_Node000001_Node000003"><a xlink:title=" ">
<path fill="none" stroke="#63b8ff" d="M115.22,-54C131.01,-54 147.79,-54 162.97,-54"/>
<polygon fill="#63b8ff" stroke="#63b8ff" points="115.45,-50.5 105.45,-54 115.45,-57.5 115.45,-50.5"/>
</a>
</g>
</g>
<!-- Node4 -->
<g id="Node000004" class="node">
<title>Node4</title>
<g id="a_Node000004"><a xlink:href="class_loop_max_1_1_core_1_1_mqtts_manager.html" target="_top" xlink:title=" ">
<polygon fill="white" stroke="#bfbfbf" points="290.75,-20 139.75,-20 139.75,0 290.75,0 290.75,-20"/>
<text xml:space="preserve" text-anchor="middle" x="215.25" y="-6.5" font-family="Helvetica,sans-Serif" font-size="10.00">LoopMax::Core::MqttsManager</text>
</a>
</g>
</g>
<!-- Node1&#45;&gt;Node4 -->
<g id="edge3_Node000001_Node000004" class="edge">
<title>Node1&#45;&gt;Node4</title>
<g id="a_edge3_Node000001_Node000004"><a xlink:title=" ">
<path fill="none" stroke="#63b8ff" d="M114.72,-35.95C123.12,-33.57 131.64,-31.2 139.75,-29 150.31,-26.13 161.75,-23.15 172.42,-20.43"/>
<polygon fill="#63b8ff" stroke="#63b8ff" points="113.91,-32.55 105.25,-38.65 115.82,-39.28 113.91,-32.55"/>
</a>
</g>
</g>
</g>
</svg>
