<?xml version="1.0" encoding="UTF-8" standalone="no"?>
<!DOCTYPE svg PUBLIC "-//W3C//DTD SVG 1.1//EN"
 "http://www.w3.org/Graphics/SVG/1.1/DTD/svg11.dtd">
<!-- Generated by graphviz version 14.1.1 (20251213.1925)
 -->
<!-- Title: LoopMax::Services::ILogSink Pages: 1 -->
<svg width="392pt" height="152pt"
 viewBox="0.00 0.00 392.00 152.00" xmlns="http://www.w3.org/2000/svg" xmlns:xlink="http://www.w3.org/1999/xlink">
<g id="graph0" class="graph" transform="scale(1 1) rotate(0) translate(4 148)">
<title>LoopMax::Services::ILogSink</title>
<!-- Node1 -->
<g id="Node000001" class="node">
<title>Node1</title>
<g id="a_Node000001"><a xlink:title=" ">
<polygon fill="#999999" stroke="#666666" points="209.5,-144 103.5,-144 103.5,-112 209.5,-112 209.5,-144"/>
<text xml:space="preserve" text-anchor="start" x="111.5" y="-130.5" font-family="Helvetica,sans-Serif" font-size="10.00">LoopMax::Services::</text>
<text xml:space="preserve" text-anchor="middle" x="156.5" y="-118.5" font-family="Helvetica,sans-Serif" font-size="10.00">ILogSink</text>
</a>
</g>
</g>
<!-- Node2 -->
<g id="Node000002" class="node">
<title>Node2</title>
<g id="a_Node000002"><a xlink:href="class_loop_max_1_1_core_1_1_serial_manager.html" target="_top" xlink:title=" ">
<polygon fill="white" stroke="#bfbfbf" points="151,-76 0,-76 0,-56 151,-56 151,-76"/>
<text xml:space="preserve" text-anchor="middle" x="75.5" y="-62.5" font-family="Helvetica,sans-Serif" font-size="10.00">LoopMax::Core::SerialManager</text>
</a>
</g>
</g>
<!-- Node1&#45;&gt;Node2 -->
<g id="edge1_Node000001_Node000002" class="edge">
<title>Node1&#45;&gt;Node2</title>
<g id="a_edge1_Node000001_Node000002"><a xlink:title=" ">
<path fill="none" stroke="#63b8ff" d="M126.4,-104.7C113.2,-94.92 98.42,-83.98 88.2,-76.41"/>
<polygon fill="#63b8ff" stroke="#63b8ff" points="124.31,-107.51 134.42,-110.65 128.47,-101.88 124.31,-107.51"/>
</a>
</g>
</g>
<!-- Node3 -->
<g id="Node000003" class="node">
<title>Node3</title>
<g id="a_Node000003"><a xlink:href="class_loop_max_1_1_modules_1_1_i_module.html" target="_top" xlink:title=" ">
<polygon fill="white" stroke="#bfbfbf" points="308,-76 169,-76 169,-56 308,-56 308,-76"/>
<text xml:space="preserve" text-anchor="middle" x="238.5" y="-62.5" font-family="Helvetica,sans-Serif" font-size="10.00">LoopMax::Modules::IModule</text>
</a>
</g>
</g>
<!-- Node1&#45;&gt;Node3 -->
<g id="edge2_Node000001_Node000003" class="edge">
<title>Node1&#45;&gt;Node3</title>
<g id="a_edge2_Node000001_Node000003"><a xlink:title=" ">
<path fill="none" stroke="#63b8ff" d="M186.59,-104.99C200.05,-95.14 215.2,-84.05 225.64,-76.41"/>
<polygon fill="#63b8ff" stroke="#63b8ff" points="184.84,-101.92 178.84,-110.65 188.98,-107.57 184.84,-101.92"/>
</a>
</g>
</g>
<!-- Node4 -->
<g id="Node000004" class="node">
<title>Node4</title>
<g id="a_Node000004"><a xlink:href="class_loop_max_1_1_modules_1_1_zappy2.html" target="_top" xlink:title=" ">
<polygon fill="white" stroke="#bfbfbf" points="228.88,-20 92.12,-20 92.12,0 228.88,0 228.88,-20"/>
<text xml:space="preserve" text-anchor="middle" x="160.5" y="-6.5" font-family="Helvetica,sans-Serif" font-size="10.00">LoopMax::Modules::Zappy2</text>
</a>
</g>
</g>
<!-- Node3&#45;&gt;Node4 -->
<g id="edge3_Node000003_Node000004" class="edge">
<title>Node3&#45;&gt;Node4</title>
<g id="a_edge3_Node000003_Node000004"><a xlink:title=" ">
<path fill="none" stroke="#63b8ff" d="M215.78,-49.27C202.31,-39.94 185.67,-28.43 174.19,-20.48"/>
<polygon fill="#63b8ff" stroke="#63b8ff" points="213.45,-51.92 223.67,-54.73 217.44,-46.16 213.45,-51.92"/>
</a>
</g>
</g>
<!-- Node5 -->
<g id="Node000005" class="node">
<title>Node5</title>
<g id="a_Node000005"><a xlink:href="class_loop_max_1_1_modules_1_1_zappy4.html" target="_top" xlink:title=" ">
<polygon fill="white" stroke="#bfbfbf" points="383.88,-20 247.12,-20 247.12,0 383.88,0 383.88,-20"/>
<text xml:space="preserve" text-anchor="middle" x="315.5" y="-6.5" font-family="Helvetica,sans-Serif" font-size="10.00">LoopMax::Modules::Zappy4</text>
</a>
</g>
</g>
<!-- Node3&#45;&gt;Node5 -->
<g id="edge4_Node000003_Node000005" class="edge">
<title>Node3&#45;&gt;Node5</title>
<g id="a_edge4_Node000003_Node000005"><a xlink:title=" ">
<path fill="none" stroke="#63b8ff" d="M261.32,-49C274.55,-39.72 290.76,-28.35 301.98,-20.48"/>
<polygon fill="#63b8ff" stroke="#63b8ff" points="259.33,-46.12 253.15,-54.72 263.35,-51.85 259.33,-46.12"/>
</a>
</g>
</g>
</g>
</svg>
