<?xml version="1.0" encoding="UTF-8" standalone="no"?>
<!DOCTYPE svg PUBLIC "-//W3C//DTD SVG 1.1//EN"
 "http://www.w3.org/Graphics/SVG/1.1/DTD/svg11.dtd">
<!-- Generated by graphviz version 14.1.1 (20251213.1925)
 -->
<!-- Title: LoopMax::Services::ModuleContext Pages: 1 -->
<svg width="314pt" height="628pt"
 viewBox="0.00 0.00 314.00 628.00" xmlns="http://www.w3.org/2000/svg" xmlns:xlink="http://www.w3.org/1999/xlink">
<g id="graph0" class="graph" transform="scale(1 1) rotate(0) translate(4 624)">
<title>LoopMax::Services::ModuleContext</title>
<!-- Node1 -->
<g id="Node000001" class="node">
<title>Node1</title>
<g id="a_Node000001"><a xlink:title=" ">
<polygon fill="#999999" stroke="#666666" points="305.75,-320 199.75,-320 199.75,-288 305.75,-288 305.75,-320"/>
<text xml:space="preserve" text-anchor="start" x="207.75" y="-306.5" font-family="Helvetica,sans-Serif" font-size="10.00">LoopMax::Services::</text>
<text xml:space="preserve" text-anchor="middle" x="252.75" y="-294.5" font-family="Helvetica,sans-Serif" font-size="10.00">ModuleContext</text>
</a>
</g>
</g>
<!-- Node2 -->
<g id="Node000002" class="node">
<title>Node2</title>
<g id="a_Node000002"><a xlink:href="class_loop_max_1_1_services_1_1_i_timer.html" target="_top" xlink:title=" ">
<polygon fill="white" stroke="#bfbfbf" points="117.25,-620 11.25,-620 11.25,-588 117.25,-588 117.25,-620"/>
<text xml:space="preserve" text-anchor="start" x="19.25" y="-606.5" font-family="Helvetica,sans-Serif" font-size="10.00">LoopMax::Services::</text>
<text xml:space="preserve" text-anchor="middle" x="64.25" y="-594.5" font-family="Helvetica,sans-Serif" font-size="10.00">ITimer</text>
</a>
</g>
</g>
<!-- Node2&#45;&gt;Node1 -->
<g id="edge1_Node000001_Node000002" class="edge">
<title>Node2&#45;&gt;Node1</title>
<g id="a_edge1_Node000001_Node000002"><a xlink:title=" ">
<path fill="none" stroke="#9a32cd" stroke-dasharray="5,2" d="M127.98,-584.35C148,-575.13 168.39,-562.07 181.75,-544 234.64,-472.45 247.71,-361.59 250.82,-320.26"/>
<polygon fill="#9a32cd" stroke="#9a32cd" points="126.78,-581.06 118.98,-588.24 129.55,-587.49 126.78,-581.06"/>
</a>
</g>
<text xml:space="preserve" text-anchor="start" x="154.75" y="-579.56" font-family="Helvetica,sans-Serif" font-size="10.00" fill="grey">time</text>
</g>
<!-- Node3 -->
<g id="Node000003" class="node">
<title>Node3</title>
<g id="a_Node000003"><a xlink:href="class_loop_max_1_1_services_1_1_i_logs.html" target="_top" xlink:title=" ">
<polygon fill="white" stroke="#bfbfbf" points="117.25,-570 11.25,-570 11.25,-538 117.25,-538 117.25,-570"/>
<text xml:space="preserve" text-anchor="start" x="19.25" y="-556.5" font-family="Helvetica,sans-Serif" font-size="10.00">LoopMax::Services::</text>
<text xml:space="preserve" text-anchor="middle" x="64.25" y="-544.5" font-family="Helvetica,sans-Serif" font-size="10.00">ILogs</text>
</a>
</g>
</g>
<!-- Node3&#45;&gt;Node1 -->
<g id="edge2_Node000001_Node000003" class="edge">
<title>Node3&#45;&gt;Node1</title>
<g id="a_edge2_Node000001_Node000003"><a xlink:title=" ">
<path fill="none" stroke="#9a32cd" stroke-dasharray="5,2" d="M126.14,-532.93C146.52,-523.1 167.62,-509.41 181.75,-491 223.43,-436.69 242.46,-354.88 248.98,-320.32"/>
<polygon fill="#9a32cd" stroke="#9a32cd" points="124.94,-529.63 117.29,-536.95 127.84,-536 124.94,-529.63"/>
</a>
</g>
<text xml:space="preserve" text-anchor="start" x="155.12" y="-527.01" font-family="Helvetica,sans-Serif" font-size="10.00" fill="grey">logs</text>
</g>
<!-- Node4 -->
<g id="Node000004" class="node">
<title>Node4</title>
<g id="a_Node000004"><a xlink:href="class_loop_max_1_1_services_1_1_i_serial.html" target="_top" xlink:title=" ">
<polygon fill="white" stroke="#bfbfbf" points="117.25,-520 11.25,-520 11.25,-488 117.25,-488 117.25,-520"/>
<text xml:space="preserve" text-anchor="start" x="19.25" y="-506.5" font-family="Helvetica,sans-Serif" font-size="10.00">LoopMax::Services::</text>
<text xml:space="preserve" text-anchor="middle" x="64.25" y="-494.5" font-family="Helvetica,sans-Serif" font-size="10.00">ISerial</text>
</a>
</g>
</g>
<!-- Node4&#45;&gt;Node1 -->
<g id="edge3_Node000001_Node000004" class="edge">
<title>Node4&#45;&gt;Node1</title>
<g id="a_edge3_Node000001_Node000004"><a xlink:title=" ">
<path fill="none" stroke="#9a32cd" stroke-dasharray="5,2" d="M123.21,-482.88C144,-472.89 166.14,-459.1 181.75,-441 214.37,-403.18 236.69,-347.51 246.34,-320.25"/>
<polygon fill="#9a32cd" stroke="#9a32cd" points="121.84,-479.66 114.2,-486.99 124.75,-486.02 121.84,-479.66"/>
</a>
</g>
<text xml:space="preserve" text-anchor="start" x="152.5" y="-474.18" font-family="Helvetica,sans-Serif" font-size="10.00" fill="grey">serial</text>
</g>
<!-- Node5 -->
<g id="Node000005" class="node">
<title>Node5</title>
<g id="a_Node000005"><a xlink:href="class_loop_max_1_1_services_1_1_i_system.html" target="_top" xlink:title=" ">
<polygon fill="white" stroke="#bfbfbf" points="117.25,-470 11.25,-470 11.25,-438 117.25,-438 117.25,-470"/>
<text xml:space="preserve" text-anchor="start" x="19.25" y="-456.5" font-family="Helvetica,sans-Serif" font-size="10.00">LoopMax::Services::</text>
<text xml:space="preserve" text-anchor="middle" x="64.25" y="-444.5" font-family="Helvetica,sans-Serif" font-size="10.00">ISystem</text>
</a>
</g>
</g>
<!-- Node5&#45;&gt;Node1 -->
<g id="edge4_Node000001_Node000005" class="edge">
<title>Node5&#45;&gt;Node1</title>
<g id="a_edge4_Node000001_Node000005"><a xlink:title=" ">
<path fill="none" stroke="#9a32cd" stroke-dasharray="5,2" d="M120.72,-432.85C123.37,-431.59 125.98,-430.31 128.5,-429 153.63,-415.95 160.94,-413.21 181.75,-394 206.33,-371.3 228.96,-339.35 241.51,-320.25"/>
<polygon fill="#9a32cd" stroke="#9a32cd" points="119.41,-429.6 111.72,-436.88 122.27,-435.98 119.41,-429.6"/>
</a>
</g>
<text xml:space="preserve" text-anchor="start" x="156.25" y="-424.82" font-family="Helvetica,sans-Serif" font-size="10.00" fill="grey">sys</text>
</g>
<!-- Node6 -->
<g id="Node000006" class="node">
<title>Node6</title>
<g id="a_Node000006"><a xlink:href="class_loop_max_1_1_services_1_1_i_pins.html" target="_top" xlink:title=" ">
<polygon fill="white" stroke="#bfbfbf" points="117.25,-420 11.25,-420 11.25,-388 117.25,-388 117.25,-420"/>
<text xml:space="preserve" text-anchor="start" x="19.25" y="-406.5" font-family="Helvetica,sans-Serif" font-size="10.00">LoopMax::Services::</text>
<text xml:space="preserve" text-anchor="middle" x="64.25" y="-394.5" font-family="Helvetica,sans-Serif" font-size="10.00">IPins</text>
</a>
</g>
</g>
<!-- Node6&#45;&gt;Node1 -->
<g id="edge5_Node000001_Node000006" class="edge">
<title>Node6&#45;&gt;Node1</title>
<g id="a_edge5_Node000001_Node000006"><a xlink:title=" ">
<path fill="none" stroke="#9a32cd" stroke-dasharray="5,2" d="M117.57,-383.39C121.27,-381.91 124.94,-380.44 128.5,-379 152.24,-369.4 159.53,-369.72 181.75,-357 200.14,-346.47 219.2,-331.75 232.77,-320.5"/>
<polygon fill="#9a32cd" stroke="#9a32cd" points="116.53,-380.04 108.54,-386.99 119.13,-386.54 116.53,-380.04"/>
</a>
</g>
<text xml:space="preserve" text-anchor="start" x="155.12" y="-377.58" font-family="Helvetica,sans-Serif" font-size="10.00" fill="grey">pins</text>
</g>
<!-- Node7 -->
<g id="Node000007" class="node">
<title>Node7</title>
<g id="a_Node000007"><a xlink:href="class_loop_max_1_1_services_1_1_i_reset.html" target="_top" xlink:title=" ">
<polygon fill="white" stroke="#bfbfbf" points="117.25,-370 11.25,-370 11.25,-338 117.25,-338 117.25,-370"/>
<text xml:space="preserve" text-anchor="start" x="19.25" y="-356.5" font-family="Helvetica,sans-Serif" font-size="10.00">LoopMax::Services::</text>
<text xml:space="preserve" text-anchor="middle" x="64.25" y="-344.5" font-family="Helvetica,sans-Serif" font-size="10.00">IReset</text>
</a>
</g>
</g>
<!-- Node7&#45;&gt;Node1 -->
<g id="edge6_Node000001_Node000007" class="edge">
<title>Node7&#45;&gt;Node1</title>
<g id="a_edge6_Node000001_Node000007"><a xlink:title=" ">
<path fill="none" stroke="#9a32cd" stroke-dasharray="5,2" d="M128.75,-339.57C146.01,-335.43 164.65,-330.74 181.75,-326 188.01,-324.27 194.56,-322.35 201.02,-320.39"/>
<polygon fill="#9a32cd" stroke="#9a32cd" points="128.03,-336.15 119.11,-341.87 129.65,-342.96 128.03,-336.15"/>
</a>
</g>
<text xml:space="preserve" text-anchor="start" x="153.25" y="-340.68" font-family="Helvetica,sans-Serif" font-size="10.00" fill="grey">reset</text>
</g>
<!-- Node8 -->
<g id="Node000008" class="node">
<title>Node8</title>
<g id="a_Node000008"><a xlink:href="class_loop_max_1_1_services_1_1_i_geo_info.html" target="_top" xlink:title=" ">
<polygon fill="white" stroke="#bfbfbf" points="117.25,-320 11.25,-320 11.25,-288 117.25,-288 117.25,-320"/>
<text xml:space="preserve" text-anchor="start" x="19.25" y="-306.5" font-family="Helvetica,sans-Serif" font-size="10.00">LoopMax::Services::</text>
<text xml:space="preserve" text-anchor="middle" x="64.25" y="-294.5" font-family="Helvetica,sans-Serif" font-size="10.00">IGeoInfo</text>
</a>
</g>
</g>
<!-- Node8&#45;&gt;Node1 -->
<g id="edge7_Node000001_Node000008" class="edge">
<title>Node8&#45;&gt;Node1</title>
<g id="a_edge7_Node000001_Node000008"><a xlink:title=" ">
<path fill="none" stroke="#9a32cd" stroke-dasharray="5,2" d="M129.06,-304C151.98,-304 177.54,-304 199.37,-304"/>
<polygon fill="#9a32cd" stroke="#9a32cd" points="129.21,-300.5 119.21,-304 129.21,-307.5 129.21,-300.5"/>
</a>
</g>
<text xml:space="preserve" text-anchor="start" x="156.25" y="-309.5" font-family="Helvetica,sans-Serif" font-size="10.00" fill="grey">geo</text>
</g>
<!-- Node9 -->
<g id="Node000009" class="node">
<title>Node9</title>
<g id="a_Node000009"><a xlink:href="class_loop_max_1_1_services_1_1_i_update.html" target="_top" xlink:title=" ">
<polygon fill="white" stroke="#bfbfbf" points="117.25,-270 11.25,-270 11.25,-238 117.25,-238 117.25,-270"/>
<text xml:space="preserve" text-anchor="start" x="19.25" y="-256.5" font-family="Helvetica,sans-Serif" font-size="10.00">LoopMax::Services::</text>
<text xml:space="preserve" text-anchor="middle" x="64.25" y="-244.5" font-family="Helvetica,sans-Serif" font-size="10.00">IUpdate</text>
</a>
</g>
</g>
<!-- Node9&#45;&gt;Node1 -->
<g id="edge8_Node000001_Node000009" class="edge">
<title>Node9&#45;&gt;Node1</title>
<g id="a_edge8_Node000001_Node000009"><a xlink:title=" ">
<path fill="none" stroke="#9a32cd" stroke-dasharray="5,2" d="M128.75,-268.43C146.01,-272.57 164.65,-277.26 181.75,-282 188.01,-283.73 194.56,-285.65 201.02,-287.61"/>
<polygon fill="#9a32cd" stroke="#9a32cd" points="129.65,-265.04 119.11,-266.13 128.03,-271.85 129.65,-265.04"/>
</a>
</g>
<text xml:space="preserve" text-anchor="start" x="149.5" y="-287.5" font-family="Helvetica,sans-Serif" font-size="10.00" fill="grey">update</text>
</g>
<!-- Node10 -->
<g id="Node000010" class="node">
<title>Node10</title>
<g id="a_Node000010"><a xlink:href="class_loop_max_1_1_services_1_1_i_config.html" target="_top" xlink:title=" ">
<polygon fill="white" stroke="#bfbfbf" points="117.25,-220 11.25,-220 11.25,-188 117.25,-188 117.25,-220"/>
<text xml:space="preserve" text-anchor="start" x="19.25" y="-206.5" font-family="Helvetica,sans-Serif" font-size="10.00">LoopMax::Services::</text>
<text xml:space="preserve" text-anchor="middle" x="64.25" y="-194.5" font-family="Helvetica,sans-Serif" font-size="10.00">IConfig</text>
</a>
</g>
</g>
<!-- Node10&#45;&gt;Node1 -->
<g id="edge9_Node000001_Node000010" class="edge">
<title>Node10&#45;&gt;Node1</title>
<g id="a_edge9_Node000001_Node000010"><a xlink:title=" ">
<path fill="none" stroke="#9a32cd" stroke-dasharray="5,2" d="M117.57,-224.61C121.27,-226.09 124.94,-227.56 128.5,-229 152.24,-238.6 159.53,-238.28 181.75,-251 200.14,-261.53 219.2,-276.25 232.77,-287.5"/>
<polygon fill="#9a32cd" stroke="#9a32cd" points="119.13,-221.46 108.54,-221.01 116.53,-227.96 119.13,-221.46"/>
</a>
</g>
<text xml:space="preserve" text-anchor="start" x="151" y="-256.5" font-family="Helvetica,sans-Serif" font-size="10.00" fill="grey">config</text>
</g>
<!-- Node11 -->
<g id="Node000011" class="node">
<title>Node11</title>
<g id="a_Node000011"><a xlink:href="class_loop_max_1_1_services_1_1_i_wifi.html" target="_top" xlink:title=" ">
<polygon fill="white" stroke="#bfbfbf" points="117.25,-170 11.25,-170 11.25,-138 117.25,-138 117.25,-170"/>
<text xml:space="preserve" text-anchor="start" x="19.25" y="-156.5" font-family="Helvetica,sans-Serif" font-size="10.00">LoopMax::Services::</text>
<text xml:space="preserve" text-anchor="middle" x="64.25" y="-144.5" font-family="Helvetica,sans-Serif" font-size="10.00">IWifi</text>
</a>
</g>
</g>
<!-- Node11&#45;&gt;Node1 -->
<g id="edge10_Node000001_Node000011" class="edge">
<title>Node11&#45;&gt;Node1</title>
<g id="a_edge10_Node000001_Node000011"><a xlink:title=" ">
<path fill="none" stroke="#9a32cd" stroke-dasharray="5,2" d="M120.72,-175.15C123.37,-176.41 125.98,-177.69 128.5,-179 153.63,-192.05 160.94,-194.79 181.75,-214 206.33,-236.7 228.96,-268.65 241.51,-287.75"/>
<polygon fill="#9a32cd" stroke="#9a32cd" points="122.27,-172.02 111.72,-171.12 119.41,-178.4 122.27,-172.02"/>
</a>
</g>
<text xml:space="preserve" text-anchor="start" x="156.62" y="-219.5" font-family="Helvetica,sans-Serif" font-size="10.00" fill="grey">wifi</text>
</g>
<!-- Node12 -->
<g id="Node000012" class="node">
<title>Node12</title>
<g id="a_Node000012"><a xlink:href="class_loop_max_1_1_services_1_1_i_web.html" target="_top" xlink:title=" ">
<polygon fill="white" stroke="#bfbfbf" points="128.5,-120 0,-120 0,-100 128.5,-100 128.5,-120"/>
<text xml:space="preserve" text-anchor="middle" x="64.25" y="-106.5" font-family="Helvetica,sans-Serif" font-size="10.00">LoopMax::Services::IWeb</text>
</a>
</g>
</g>
<!-- Node12&#45;&gt;Node1 -->
<g id="edge11_Node000001_Node000012" class="edge">
<title>Node12&#45;&gt;Node1</title>
<g id="a_edge11_Node000001_Node000012"><a xlink:title=" ">
<path fill="none" stroke="#9a32cd" stroke-dasharray="5,2" d="M117.71,-124.28C121.42,-125.73 125.05,-127.31 128.5,-129 154.61,-141.8 162.76,-144.98 181.75,-167 214.37,-204.82 236.69,-260.49 246.34,-287.75"/>
<polygon fill="#9a32cd" stroke="#9a32cd" points="119.18,-121.08 108.59,-120.98 116.81,-127.67 119.18,-121.08"/>
</a>
</g>
<text xml:space="preserve" text-anchor="start" x="155.12" y="-172.5" font-family="Helvetica,sans-Serif" font-size="10.00" fill="grey">web</text>
</g>
<!-- Node13 -->
<g id="Node000013" class="node">
<title>Node13</title>
<g id="a_Node000013"><a xlink:href="class_loop_max_1_1_services_1_1_i_https.html" target="_top" xlink:title=" ">
<polygon fill="white" stroke="#bfbfbf" points="117.25,-82 11.25,-82 11.25,-50 117.25,-50 117.25,-82"/>
<text xml:space="preserve" text-anchor="start" x="19.25" y="-68.5" font-family="Helvetica,sans-Serif" font-size="10.00">LoopMax::Services::</text>
<text xml:space="preserve" text-anchor="middle" x="64.25" y="-56.5" font-family="Helvetica,sans-Serif" font-size="10.00">IHttps</text>
</a>
</g>
</g>
<!-- Node13&#45;&gt;Node1 -->
<g id="edge12_Node000001_Node000013" class="edge">
<title>Node13&#45;&gt;Node1</title>
<g id="a_edge12_Node000001_Node000013"><a xlink:title=" ">
<path fill="none" stroke="#9a32cd" stroke-dasharray="5,2" d="M128.26,-82.02C147.57,-89.59 167.47,-100.49 181.75,-116 228.58,-166.86 244.87,-251.88 249.83,-287.5"/>
<polygon fill="#9a32cd" stroke="#9a32cd" points="129.64,-78.8 119.05,-78.66 127.25,-85.38 129.64,-78.8"/>
</a>
</g>
<text xml:space="preserve" text-anchor="start" x="153.25" y="-121.5" font-family="Helvetica,sans-Serif" font-size="10.00" fill="grey">https</text>
</g>
<!-- Node14 -->
<g id="Node000014" class="node">
<title>Node14</title>
<g id="a_Node000014"><a xlink:href="class_loop_max_1_1_services_1_1_i_mqtts.html" target="_top" xlink:title=" ">
<polygon fill="white" stroke="#bfbfbf" points="117.25,-32 11.25,-32 11.25,0 117.25,0 117.25,-32"/>
<text xml:space="preserve" text-anchor="start" x="19.25" y="-18.5" font-family="Helvetica,sans-Serif" font-size="10.00">LoopMax::Services::</text>
<text xml:space="preserve" text-anchor="middle" x="64.25" y="-6.5" font-family="Helvetica,sans-Serif" font-size="10.00">IMqtts</text>
</a>
</g>
</g>
<!-- Node14&#45;&gt;Node1 -->
<g id="edge13_Node000001_Node000014" class="edge">
<title>Node14&#45;&gt;Node1</title>
<g id="a_edge13_Node000001_Node000014"><a xlink:title=" ">
<path fill="none" stroke="#9a32cd" stroke-dasharray="5,2" d="M128.19,-33.06C147.91,-41.27 168.06,-53.12 181.75,-70 236.37,-137.35 248.39,-246.42 251.02,-287.58"/>
<polygon fill="#9a32cd" stroke="#9a32cd" points="129.65,-29.87 119.06,-29.52 127.12,-36.4 129.65,-29.87"/>
</a>
</g>
<text xml:space="preserve" text-anchor="start" x="151.75" y="-75.5" font-family="Helvetica,sans-Serif" font-size="10.00" fill="grey">mqtts</text>
</g>
</g>
</svg>
