<?xml version="1.0" encoding="UTF-8" standalone="no"?>
<!DOCTYPE svg PUBLIC "-//W3C//DTD SVG 1.1//EN"
 "http://www.w3.org/Graphics/SVG/1.1/DTD/svg11.dtd">
<!-- Generated by graphviz version 14.1.1 (20251213.1925)
 -->
<!-- Title: LoopMax::Core::Hal::IHal_Task Pages: 1 -->
<svg width="234pt" height="108pt"
 viewBox="0.00 0.00 234.00 108.00" xmlns="http://www.w3.org/2000/svg" xmlns:xlink="http://www.w3.org/1999/xlink">
<g id="graph0" class="graph" transform="scale(1 1) rotate(0) translate(4 104)">
<title>LoopMax::Core::Hal::IHal_Task</title>
<!-- Node1 -->
<g id="Node000001" class="node">
<title>Node1</title>
<g id="a_Node000001"><a xlink:title=" ">
<polygon fill="#999999" stroke="#666666" points="164.75,-100 61,-100 61,-68 164.75,-68 164.75,-100"/>
<text xml:space="preserve" text-anchor="start" x="69" y="-86.5" font-family="Helvetica,sans-Serif" font-size="10.00">LoopMax::Core::Hal</text>
<text xml:space="preserve" text-anchor="middle" x="112.88" y="-74.5" font-family="Helvetica,sans-Serif" font-size="10.00">::IHal_Task</text>
</a>
</g>
</g>
<!-- Node2 -->
<g id="Node000002" class="node">
<title>Node2</title>
<g id="a_Node000002"><a xlink:href="class_loop_max_1_1_core_1_1_hal_1_1ard__task.html" target="_top" xlink:title=" ">
<polygon fill="white" stroke="#bfbfbf" points="103.75,-32 0,-32 0,0 103.75,0 103.75,-32"/>
<text xml:space="preserve" text-anchor="start" x="8" y="-18.5" font-family="Helvetica,sans-Serif" font-size="10.00">LoopMax::Core::Hal</text>
<text xml:space="preserve" text-anchor="middle" x="51.88" y="-6.5" font-family="Helvetica,sans-Serif" font-size="10.00">::ard_task</text>
</a>
</g>
</g>
<!-- Node1&#45;&gt;Node2 -->
<g id="edge1_Node000001_Node000002" class="edge">
<title>Node1&#45;&gt;Node2</title>
<g id="a_edge1_Node000001_Node000002"><a xlink:title=" ">
<path fill="none" stroke="#63b8ff" d="M91.09,-59.43C82.72,-50.38 73.4,-40.29 65.95,-32.22"/>
<polygon fill="#63b8ff" stroke="#63b8ff" points="88.34,-61.61 97.7,-66.58 93.48,-56.86 88.34,-61.61"/>
</a>
</g>
</g>
<!-- Node3 -->
<g id="Node000003" class="node">
<title>Node3</title>
<g id="a_Node000003"><a xlink:href="class_loop_max_1_1_core_1_1_hal_1_1ard__task__rtos.html" target="_top" xlink:title=" ">
<polygon fill="white" stroke="#bfbfbf" points="225.75,-32 122,-32 122,0 225.75,0 225.75,-32"/>
<text xml:space="preserve" text-anchor="start" x="130" y="-18.5" font-family="Helvetica,sans-Serif" font-size="10.00">LoopMax::Core::Hal</text>
<text xml:space="preserve" text-anchor="middle" x="173.88" y="-6.5" font-family="Helvetica,sans-Serif" font-size="10.00">::ard_task_rtos</text>
</a>
</g>
</g>
<!-- Node1&#45;&gt;Node3 -->
<g id="edge2_Node000001_Node000003" class="edge">
<title>Node1&#45;&gt;Node3</title>
<g id="a_edge2_Node000001_Node000003"><a xlink:title=" ">
<path fill="none" stroke="#63b8ff" d="M134.66,-59.43C143.03,-50.38 152.35,-40.29 159.8,-32.22"/>
<polygon fill="#63b8ff" stroke="#63b8ff" points="132.27,-56.86 128.05,-66.58 137.41,-61.61 132.27,-56.86"/>
</a>
</g>
</g>
</g>
</svg>
