<?xml version="1.0" encoding="UTF-8" standalone="no"?>
<!DOCTYPE svg PUBLIC "-//W3C//DTD SVG 1.1//EN"
 "http://www.w3.org/Graphics/SVG/1.1/DTD/svg11.dtd">
<!-- Generated by graphviz version 14.1.1 (20251213.1925)
 -->
<!-- Title: LoopMax::Core::IService Pages: 1 -->
<svg width="329pt" height="522pt"
 viewBox="0.00 0.00 329.00 522.00" xmlns="http://www.w3.org/2000/svg" xmlns:xlink="http://www.w3.org/1999/xlink">
<g id="graph0" class="graph" transform="scale(1 1) rotate(0) translate(4 518)">
<title>LoopMax::Core::IService</title>
<!-- Node1 -->
<g id="Node000001" class="node">
<title>Node1</title>
<g id="a_Node000001"><a xlink:title=" ">
<polygon fill="#999999" stroke="#666666" points="124.75,-267 0,-267 0,-247 124.75,-247 124.75,-267"/>
<text xml:space="preserve" text-anchor="middle" x="62.38" y="-253.5" font-family="Helvetica,sans-Serif" font-size="10.00">LoopMax::Core::IService</text>
</a>
</g>
</g>
<!-- Node2 -->
<g id="Node000002" class="node">
<title>Node2</title>
<g id="a_Node000002"><a xlink:href="class_loop_max_1_1_core_1_1_config_manager.html" target="_top" xlink:title=" ">
<polygon fill="white" stroke="#bfbfbf" points="318.12,-514 163.38,-514 163.38,-494 318.12,-494 318.12,-514"/>
<text xml:space="preserve" text-anchor="middle" x="240.75" y="-500.5" font-family="Helvetica,sans-Serif" font-size="10.00">LoopMax::Core::ConfigManager</text>
</a>
</g>
</g>
<!-- Node1&#45;&gt;Node2 -->
<g id="edge1_Node000001_Node000002" class="edge">
<title>Node1&#45;&gt;Node2</title>
<g id="a_edge1_Node000001_Node000002"><a xlink:title=" ">
<path fill="none" stroke="#63b8ff" d="M66.09,-278.39C73.02,-323.76 95.68,-430.01 160.75,-485 164.84,-488.46 169.46,-491.31 174.36,-493.66"/>
<polygon fill="#63b8ff" stroke="#63b8ff" points="69.57,-277.98 64.71,-268.56 62.63,-278.95 69.57,-277.98"/>
</a>
</g>
</g>
<!-- Node3 -->
<g id="Node000003" class="node">
<title>Node3</title>
<g id="a_Node000003"><a xlink:href="class_loop_max_1_1_core_1_1_geo_manager.html" target="_top" xlink:title=" ">
<polygon fill="white" stroke="#bfbfbf" points="312.88,-476 168.62,-476 168.62,-456 312.88,-456 312.88,-476"/>
<text xml:space="preserve" text-anchor="middle" x="240.75" y="-462.5" font-family="Helvetica,sans-Serif" font-size="10.00">LoopMax::Core::GeoManager</text>
</a>
</g>
</g>
<!-- Node1&#45;&gt;Node3 -->
<g id="edge2_Node000001_Node000003" class="edge">
<title>Node1&#45;&gt;Node3</title>
<g id="a_edge2_Node000001_Node000003"><a xlink:title=" ">
<path fill="none" stroke="#63b8ff" d="M68.07,-278.31C77.96,-317.95 104.76,-402.95 160.75,-447 165.07,-450.4 169.91,-453.21 175.01,-455.52"/>
<polygon fill="#63b8ff" stroke="#63b8ff" points="71.49,-277.55 65.79,-268.62 64.68,-279.16 71.49,-277.55"/>
</a>
</g>
</g>
<!-- Node4 -->
<g id="Node000004" class="node">
<title>Node4</title>
<g id="a_Node000004"><a xlink:href="class_loop_max_1_1_core_1_1_https_manager.html" target="_top" xlink:title=" ">
<polygon fill="white" stroke="#bfbfbf" points="315.88,-438 165.62,-438 165.62,-418 315.88,-418 315.88,-438"/>
<text xml:space="preserve" text-anchor="middle" x="240.75" y="-424.5" font-family="Helvetica,sans-Serif" font-size="10.00">LoopMax::Core::HttpsManager</text>
</a>
</g>
</g>
<!-- Node1&#45;&gt;Node4 -->
<g id="edge3_Node000001_Node000004" class="edge">
<title>Node1&#45;&gt;Node4</title>
<g id="a_edge3_Node000001_Node000004"><a xlink:title=" ">
<path fill="none" stroke="#63b8ff" d="M70.92,-278.18C83.9,-311.42 113.68,-375.5 160.75,-409 165.58,-412.44 170.95,-415.25 176.55,-417.57"/>
<polygon fill="#63b8ff" stroke="#63b8ff" points="74.22,-276.99 67.43,-268.86 67.66,-279.45 74.22,-276.99"/>
</a>
</g>
</g>
<!-- Node5 -->
<g id="Node000005" class="node">
<title>Node5</title>
<g id="a_Node000005"><a xlink:href="class_loop_max_1_1_core_1_1_logs_manager.html" target="_top" xlink:title=" ">
<polygon fill="white" stroke="#bfbfbf" points="314.38,-400 167.12,-400 167.12,-380 314.38,-380 314.38,-400"/>
<text xml:space="preserve" text-anchor="middle" x="240.75" y="-386.5" font-family="Helvetica,sans-Serif" font-size="10.00">LoopMax::Core::LogsManager</text>
</a>
</g>
</g>
<!-- Node1&#45;&gt;Node5 -->
<g id="edge4_Node000001_Node000005" class="edge">
<title>Node1&#45;&gt;Node5</title>
<g id="a_edge4_Node000001_Node000005"><a xlink:title=" ">
<path fill="none" stroke="#63b8ff" d="M75.03,-277.25C90.98,-303.11 122.11,-347.31 160.75,-371 166.4,-374.47 172.64,-377.3 179.06,-379.61"/>
<polygon fill="#63b8ff" stroke="#63b8ff" points="78.05,-275.5 69.92,-268.71 72.05,-279.09 78.05,-275.5"/>
</a>
</g>
</g>
<!-- Node6 -->
<g id="Node000006" class="node">
<title>Node6</title>
<g id="a_Node000006"><a xlink:href="class_loop_max_1_1_core_1_1_mqtts_manager.html" target="_top" xlink:title=" ">
<polygon fill="white" stroke="#bfbfbf" points="316.25,-362 165.25,-362 165.25,-342 316.25,-342 316.25,-362"/>
<text xml:space="preserve" text-anchor="middle" x="240.75" y="-348.5" font-family="Helvetica,sans-Serif" font-size="10.00">LoopMax::Core::MqttsManager</text>
</a>
</g>
</g>
<!-- Node1&#45;&gt;Node6 -->
<g id="edge5_Node000001_Node000006" class="edge">
<title>Node1&#45;&gt;Node6</title>
<g id="a_edge5_Node000001_Node000006"><a xlink:title=" ">
<path fill="none" stroke="#63b8ff" d="M81.5,-275.09C99.92,-292.46 130.04,-318.19 160.75,-333 167.87,-336.43 175.65,-339.27 183.47,-341.61"/>
<polygon fill="#63b8ff" stroke="#63b8ff" points="84.16,-272.79 74.53,-268.37 79.3,-277.83 84.16,-272.79"/>
</a>
</g>
</g>
<!-- Node7 -->
<g id="Node000007" class="node">
<title>Node7</title>
<g id="a_Node000007"><a xlink:href="class_loop_max_1_1_core_1_1_pins_manager.html" target="_top" xlink:title=" ">
<polygon fill="white" stroke="#bfbfbf" points="313.62,-324 167.88,-324 167.88,-304 313.62,-304 313.62,-324"/>
<text xml:space="preserve" text-anchor="middle" x="240.75" y="-310.5" font-family="Helvetica,sans-Serif" font-size="10.00">LoopMax::Core::PinsManager</text>
</a>
</g>
</g>
<!-- Node1&#45;&gt;Node7 -->
<g id="edge6_Node000001_Node000007" class="edge">
<title>Node1&#45;&gt;Node7</title>
<g id="a_edge6_Node000001_Node000007"><a xlink:title=" ">
<path fill="none" stroke="#63b8ff" d="M97.98,-271.83C116.4,-279.39 139.57,-288.36 160.75,-295 170.71,-298.13 181.51,-301.03 191.84,-303.58"/>
<polygon fill="#63b8ff" stroke="#63b8ff" points="99.43,-268.64 88.86,-268.04 96.75,-275.11 99.43,-268.64"/>
</a>
</g>
</g>
<!-- Node8 -->
<g id="Node000008" class="node">
<title>Node8</title>
<g id="a_Node000008"><a xlink:href="class_loop_max_1_1_core_1_1_reset_manager.html" target="_top" xlink:title=" ">
<polygon fill="white" stroke="#bfbfbf" points="317,-286 164.5,-286 164.5,-266 317,-266 317,-286"/>
<text xml:space="preserve" text-anchor="middle" x="240.75" y="-272.5" font-family="Helvetica,sans-Serif" font-size="10.00">LoopMax::Core::ResetManager</text>
</a>
</g>
</g>
<!-- Node1&#45;&gt;Node8 -->
<g id="edge7_Node000001_Node000008" class="edge">
<title>Node1&#45;&gt;Node8</title>
<g id="a_edge7_Node000001_Node000008"><a xlink:title=" ">
<path fill="none" stroke="#63b8ff" d="M136.48,-264.88C145.61,-265.86 154.96,-266.87 164.13,-267.85"/>
<polygon fill="#63b8ff" stroke="#63b8ff" points="136.88,-261.4 126.57,-263.81 136.13,-268.36 136.88,-261.4"/>
</a>
</g>
</g>
<!-- Node9 -->
<g id="Node000009" class="node">
<title>Node9</title>
<g id="a_Node000009"><a xlink:href="class_loop_max_1_1_core_1_1_serial_manager.html" target="_top" xlink:title=" ">
<polygon fill="white" stroke="#bfbfbf" points="316.25,-248 165.25,-248 165.25,-228 316.25,-228 316.25,-248"/>
<text xml:space="preserve" text-anchor="middle" x="240.75" y="-234.5" font-family="Helvetica,sans-Serif" font-size="10.00">LoopMax::Core::SerialManager</text>
</a>
</g>
</g>
<!-- Node1&#45;&gt;Node9 -->
<g id="edge8_Node000001_Node000009" class="edge">
<title>Node1&#45;&gt;Node9</title>
<g id="a_edge8_Node000001_Node000009"><a xlink:title=" ">
<path fill="none" stroke="#63b8ff" d="M136.44,-249.13C145.89,-248.11 155.58,-247.07 165.05,-246.05"/>
<polygon fill="#63b8ff" stroke="#63b8ff" points="136.13,-245.64 126.57,-250.19 136.88,-252.6 136.13,-245.64"/>
</a>
</g>
</g>
<!-- Node10 -->
<g id="Node000010" class="node">
<title>Node10</title>
<g id="a_Node000010"><a xlink:href="class_loop_max_1_1_core_1_1_storage_manager.html" target="_top" xlink:title=" ">
<polygon fill="white" stroke="#bfbfbf" points="320.75,-210 160.75,-210 160.75,-190 320.75,-190 320.75,-210"/>
<text xml:space="preserve" text-anchor="middle" x="240.75" y="-196.5" font-family="Helvetica,sans-Serif" font-size="10.00">LoopMax::Core::StorageManager</text>
</a>
</g>
</g>
<!-- Node1&#45;&gt;Node10 -->
<g id="edge9_Node000001_Node000010" class="edge">
<title>Node1&#45;&gt;Node10</title>
<g id="a_edge9_Node000001_Node000010"><a xlink:title=" ">
<path fill="none" stroke="#63b8ff" d="M97.98,-242.17C116.4,-234.61 139.57,-225.64 160.75,-219 170.71,-215.87 181.51,-212.97 191.84,-210.42"/>
<polygon fill="#63b8ff" stroke="#63b8ff" points="96.75,-238.89 88.86,-245.96 99.43,-245.36 96.75,-238.89"/>
</a>
</g>
</g>
<!-- Node11 -->
<g id="Node000011" class="node">
<title>Node11</title>
<g id="a_Node000011"><a xlink:href="class_loop_max_1_1_core_1_1_system_manager.html" target="_top" xlink:title=" ">
<polygon fill="white" stroke="#bfbfbf" points="320.75,-172 160.75,-172 160.75,-152 320.75,-152 320.75,-172"/>
<text xml:space="preserve" text-anchor="middle" x="240.75" y="-158.5" font-family="Helvetica,sans-Serif" font-size="10.00">LoopMax::Core::SystemManager</text>
</a>
</g>
</g>
<!-- Node1&#45;&gt;Node11 -->
<g id="edge10_Node000001_Node000011" class="edge">
<title>Node1&#45;&gt;Node11</title>
<g id="a_edge10_Node000001_Node000011"><a xlink:title=" ">
<path fill="none" stroke="#63b8ff" d="M81.5,-238.91C99.92,-221.54 130.04,-195.81 160.75,-181 167.87,-177.57 175.65,-174.73 183.47,-172.39"/>
<polygon fill="#63b8ff" stroke="#63b8ff" points="79.3,-236.17 74.53,-245.63 84.16,-241.21 79.3,-236.17"/>
</a>
</g>
</g>
<!-- Node12 -->
<g id="Node000012" class="node">
<title>Node12</title>
<g id="a_Node000012"><a xlink:href="class_loop_max_1_1_core_1_1_time_manager.html" target="_top" xlink:title=" ">
<polygon fill="white" stroke="#bfbfbf" points="314.75,-134 166.75,-134 166.75,-114 314.75,-114 314.75,-134"/>
<text xml:space="preserve" text-anchor="middle" x="240.75" y="-120.5" font-family="Helvetica,sans-Serif" font-size="10.00">LoopMax::Core::TimeManager</text>
</a>
</g>
</g>
<!-- Node1&#45;&gt;Node12 -->
<g id="edge11_Node000001_Node000012" class="edge">
<title>Node1&#45;&gt;Node12</title>
<g id="a_edge11_Node000001_Node000012"><a xlink:title=" ">
<path fill="none" stroke="#63b8ff" d="M75.03,-236.75C90.98,-210.89 122.11,-166.69 160.75,-143 166.4,-139.53 172.64,-136.7 179.06,-134.39"/>
<polygon fill="#63b8ff" stroke="#63b8ff" points="72.05,-234.91 69.92,-245.29 78.05,-238.5 72.05,-234.91"/>
</a>
</g>
</g>
<!-- Node13 -->
<g id="Node000013" class="node">
<title>Node13</title>
<g id="a_Node000013"><a xlink:href="class_loop_max_1_1_core_1_1_update_manager.html" target="_top" xlink:title=" ">
<polygon fill="white" stroke="#bfbfbf" points="319.62,-96 161.88,-96 161.88,-76 319.62,-76 319.62,-96"/>
<text xml:space="preserve" text-anchor="middle" x="240.75" y="-82.5" font-family="Helvetica,sans-Serif" font-size="10.00">LoopMax::Core::UpdateManager</text>
</a>
</g>
</g>
<!-- Node1&#45;&gt;Node13 -->
<g id="edge12_Node000001_Node000013" class="edge">
<title>Node1&#45;&gt;Node13</title>
<g id="a_edge12_Node000001_Node000013"><a xlink:title=" ">
<path fill="none" stroke="#63b8ff" d="M70.92,-235.82C83.9,-202.58 113.68,-138.5 160.75,-105 165.58,-101.56 170.95,-98.75 176.55,-96.43"/>
<polygon fill="#63b8ff" stroke="#63b8ff" points="67.66,-234.55 67.43,-245.14 74.22,-237.01 67.66,-234.55"/>
</a>
</g>
</g>
<!-- Node14 -->
<g id="Node000014" class="node">
<title>Node14</title>
<g id="a_Node000014"><a xlink:href="class_loop_max_1_1_core_1_1_web_manager.html" target="_top" xlink:title=" ">
<polygon fill="white" stroke="#bfbfbf" points="313.62,-58 167.88,-58 167.88,-38 313.62,-38 313.62,-58"/>
<text xml:space="preserve" text-anchor="middle" x="240.75" y="-44.5" font-family="Helvetica,sans-Serif" font-size="10.00">LoopMax::Core::WebManager</text>
</a>
</g>
</g>
<!-- Node1&#45;&gt;Node14 -->
<g id="edge13_Node000001_Node000014" class="edge">
<title>Node1&#45;&gt;Node14</title>
<g id="a_edge13_Node000001_Node000014"><a xlink:title=" ">
<path fill="none" stroke="#63b8ff" d="M68.07,-235.69C77.96,-196.05 104.76,-111.05 160.75,-67 165.07,-63.6 169.91,-60.79 175.01,-58.48"/>
<polygon fill="#63b8ff" stroke="#63b8ff" points="64.68,-234.84 65.79,-245.38 71.49,-236.45 64.68,-234.84"/>
</a>
</g>
</g>
<!-- Node15 -->
<g id="Node000015" class="node">
<title>Node15</title>
<g id="a_Node000015"><a xlink:href="class_loop_max_1_1_core_1_1_wifi_manager.html" target="_top" xlink:title=" ">
<polygon fill="white" stroke="#bfbfbf" points="312.5,-20 169,-20 169,0 312.5,0 312.5,-20"/>
<text xml:space="preserve" text-anchor="middle" x="240.75" y="-6.5" font-family="Helvetica,sans-Serif" font-size="10.00">LoopMax::Core::WifiManager</text>
</a>
</g>
</g>
<!-- Node1&#45;&gt;Node15 -->
<g id="edge14_Node000001_Node000015" class="edge">
<title>Node1&#45;&gt;Node15</title>
<g id="a_edge14_Node000001_Node000015"><a xlink:title=" ">
<path fill="none" stroke="#63b8ff" d="M66.09,-235.61C73.02,-190.24 95.68,-83.99 160.75,-29 164.84,-25.54 169.46,-22.69 174.36,-20.34"/>
<polygon fill="#63b8ff" stroke="#63b8ff" points="62.63,-235.05 64.71,-245.44 69.57,-236.02 62.63,-235.05"/>
</a>
</g>
</g>
</g>
</svg>
