<?xml version="1.0" encoding="UTF-8" standalone="no"?>
<!DOCTYPE svg PUBLIC "-//W3C//DTD SVG 1.1//EN"
 "http://www.w3.org/Graphics/SVG/1.1/DTD/svg11.dtd">
<!-- Generated by graphviz version 14.1.1 (20251213.1925)
 -->
<!-- Title: LoopMax::Core::Hal::IHal_Wifi Pages: 1 -->
<svg width="291pt" height="128pt"
 viewBox="0.00 0.00 291.00 128.00" xmlns="http://www.w3.org/2000/svg" xmlns:xlink="http://www.w3.org/1999/xlink">
<g id="graph0" class="graph" transform="scale(1 1) rotate(0) translate(4 124)">
<title>LoopMax::Core::Hal::IHal_Wifi</title>
<!-- Node1 -->
<g id="Node000001" class="node">
<title>Node1</title>
<g id="a_Node000001"><a xlink:title=" ">
<polygon fill="#999999" stroke="#666666" points="103.75,-70 0,-70 0,-38 103.75,-38 103.75,-70"/>
<text xml:space="preserve" text-anchor="start" x="8" y="-56.5" font-family="Helvetica,sans-Serif" font-size="10.00">LoopMax::Core::Hal</text>
<text xml:space="preserve" text-anchor="middle" x="51.88" y="-44.5" font-family="Helvetica,sans-Serif" font-size="10.00">::IHal_Wifi</text>
</a>
</g>
</g>
<!-- Node2 -->
<g id="Node000002" class="node">
<title>Node2</title>
<g id="a_Node000002"><a xlink:href="class_loop_max_1_1_core_1_1_hal_1_1ard__esp32wifi.html" target="_top" xlink:title=" ">
<polygon fill="white" stroke="#bfbfbf" points="263.38,-120 159.62,-120 159.62,-88 263.38,-88 263.38,-120"/>
<text xml:space="preserve" text-anchor="start" x="167.62" y="-106.5" font-family="Helvetica,sans-Serif" font-size="10.00">LoopMax::Core::Hal</text>
<text xml:space="preserve" text-anchor="middle" x="211.5" y="-94.5" font-family="Helvetica,sans-Serif" font-size="10.00">::ard_esp32wifi</text>
</a>
</g>
</g>
<!-- Node1&#45;&gt;Node2 -->
<g id="edge1_Node000001_Node000002" class="edge">
<title>Node1&#45;&gt;Node2</title>
<g id="a_edge1_Node000001_Node000002"><a xlink:title=" ">
<path fill="none" stroke="#63b8ff" d="M114.64,-73.59C129.43,-78.28 145.06,-83.24 159.31,-87.76"/>
<polygon fill="#63b8ff" stroke="#63b8ff" points="116.08,-70.38 105.49,-70.69 113.97,-77.05 116.08,-70.38"/>
</a>
</g>
</g>
<!-- Node3 -->
<g id="Node000003" class="node">
<title>Node3</title>
<g id="a_Node000003"><a xlink:href="class_loop_max_1_1_core_1_1_hal_1_1idf__esp32wifi.html" target="_top" xlink:title=" ">
<polygon fill="white" stroke="#bfbfbf" points="263.38,-70 159.62,-70 159.62,-38 263.38,-38 263.38,-70"/>
<text xml:space="preserve" text-anchor="start" x="167.62" y="-56.5" font-family="Helvetica,sans-Serif" font-size="10.00">LoopMax::Core::Hal</text>
<text xml:space="preserve" text-anchor="middle" x="211.5" y="-44.5" font-family="Helvetica,sans-Serif" font-size="10.00">::idf_esp32wifi</text>
</a>
</g>
</g>
<!-- Node1&#45;&gt;Node3 -->
<g id="edge2_Node000001_Node000003" class="edge">
<title>Node1&#45;&gt;Node3</title>
<g id="a_edge2_Node000001_Node000003"><a xlink:title=" ">
<path fill="none" stroke="#63b8ff" d="M115.5,-54C130.04,-54 145.34,-54 159.31,-54"/>
<polygon fill="#63b8ff" stroke="#63b8ff" points="115.56,-50.5 105.56,-54 115.56,-57.5 115.56,-50.5"/>
</a>
</g>
</g>
<!-- Node4 -->
<g id="Node000004" class="node">
<title>Node4</title>
<g id="a_Node000004"><a xlink:href="class_loop_max_1_1_core_1_1_wifi_manager.html" target="_top" xlink:title=" ">
<polygon fill="white" stroke="#bfbfbf" points="283.25,-20 139.75,-20 139.75,0 283.25,0 283.25,-20"/>
<text xml:space="preserve" text-anchor="middle" x="211.5" y="-6.5" font-family="Helvetica,sans-Serif" font-size="10.00">LoopMax::Core::WifiManager</text>
</a>
</g>
</g>
<!-- Node1&#45;&gt;Node4 -->
<g id="edge3_Node000001_Node000004" class="edge">
<title>Node1&#45;&gt;Node4</title>
<g id="a_edge3_Node000001_Node000004"><a xlink:title=" ">
<path fill="none" stroke="#63b8ff" d="M114.75,-36.05C123.15,-33.65 131.65,-31.25 139.75,-29 149.92,-26.17 160.93,-23.18 171.17,-20.43"/>
<polygon fill="#63b8ff" stroke="#63b8ff" points="113.93,-32.64 105.28,-38.76 115.85,-39.37 113.93,-32.64"/>
</a>
</g>
</g>
</g>
</svg>
