<?xml version="1.0" encoding="UTF-8" standalone="no"?>
<!DOCTYPE svg PUBLIC "-//W3C//DTD SVG 1.1//EN"
 "http://www.w3.org/Graphics/SVG/1.1/DTD/svg11.dtd">
<!-- Generated by graphviz version 14.1.1 (20251213.1925)
 -->
<!-- Title: LoopMax::Core::Hal::IHal_GeoInfo Pages: 1 -->
<svg width="292pt" height="128pt"
 viewBox="0.00 0.00 292.00 128.00" xmlns="http://www.w3.org/2000/svg" xmlns:xlink="http://www.w3.org/1999/xlink">
<g id="graph0" class="graph" transform="scale(1 1) rotate(0) translate(4 124)">
<title>LoopMax::Core::Hal::IHal_GeoInfo</title>
<!-- Node1 -->
<g id="Node000001" class="node">
<title>Node1</title>
<g id="a_Node000001"><a xlink:title=" ">
<polygon fill="#999999" stroke="#666666" points="103.75,-82 0,-82 0,-50 103.75,-50 103.75,-82"/>
<text xml:space="preserve" text-anchor="start" x="8" y="-68.5" font-family="Helvetica,sans-Serif" font-size="10.00">LoopMax::Core::Hal</text>
<text xml:space="preserve" text-anchor="middle" x="51.88" y="-56.5" font-family="Helvetica,sans-Serif" font-size="10.00">::IHal_GeoInfo</text>
</a>
</g>
</g>
<!-- Node2 -->
<g id="Node000002" class="node">
<title>Node2</title>
<g id="a_Node000002"><a xlink:href="class_loop_max_1_1_core_1_1_geo_manager.html" target="_top" xlink:title=" ">
<polygon fill="white" stroke="#bfbfbf" points="284,-120 139.75,-120 139.75,-100 284,-100 284,-120"/>
<text xml:space="preserve" text-anchor="middle" x="211.88" y="-106.5" font-family="Helvetica,sans-Serif" font-size="10.00">LoopMax::Core::GeoManager</text>
</a>
</g>
</g>
<!-- Node1&#45;&gt;Node2 -->
<g id="edge1_Node000001_Node000002" class="edge">
<title>Node1&#45;&gt;Node2</title>
<g id="a_edge1_Node000001_Node000002"><a xlink:title=" ">
<path fill="none" stroke="#63b8ff" d="M114.75,-83.96C123.14,-86.35 131.65,-88.75 139.75,-91 149.97,-93.84 161.04,-96.83 171.34,-99.58"/>
<polygon fill="#63b8ff" stroke="#63b8ff" points="115.85,-80.64 105.27,-81.25 113.93,-87.37 115.85,-80.64"/>
</a>
</g>
</g>
<!-- Node3 -->
<g id="Node000003" class="node">
<title>Node3</title>
<g id="a_Node000003"><a xlink:href="class_loop_max_1_1_core_1_1_hal_1_1ard__geo_info.html" target="_top" xlink:title=" ">
<polygon fill="white" stroke="#bfbfbf" points="263.75,-82 160,-82 160,-50 263.75,-50 263.75,-82"/>
<text xml:space="preserve" text-anchor="start" x="168" y="-68.5" font-family="Helvetica,sans-Serif" font-size="10.00">LoopMax::Core::Hal</text>
<text xml:space="preserve" text-anchor="middle" x="211.88" y="-56.5" font-family="Helvetica,sans-Serif" font-size="10.00">::ard_geoInfo</text>
</a>
</g>
</g>
<!-- Node1&#45;&gt;Node3 -->
<g id="edge2_Node000001_Node000003" class="edge">
<title>Node1&#45;&gt;Node3</title>
<g id="a_edge2_Node000001_Node000003"><a xlink:title=" ">
<path fill="none" stroke="#63b8ff" d="M115.65,-66C130.22,-66 145.56,-66 159.56,-66"/>
<polygon fill="#63b8ff" stroke="#63b8ff" points="115.69,-62.5 105.69,-66 115.69,-69.5 115.69,-62.5"/>
</a>
</g>
</g>
<!-- Node4 -->
<g id="Node000004" class="node">
<title>Node4</title>
<g id="a_Node000004"><a xlink:href="class_loop_max_1_1_core_1_1_hal_1_1idf__geo_info.html" target="_top" xlink:title=" ">
<polygon fill="white" stroke="#bfbfbf" points="263.75,-32 160,-32 160,0 263.75,0 263.75,-32"/>
<text xml:space="preserve" text-anchor="start" x="168" y="-18.5" font-family="Helvetica,sans-Serif" font-size="10.00">LoopMax::Core::Hal</text>
<text xml:space="preserve" text-anchor="middle" x="211.88" y="-6.5" font-family="Helvetica,sans-Serif" font-size="10.00">::idf_geoInfo</text>
</a>
</g>
</g>
<!-- Node1&#45;&gt;Node4 -->
<g id="edge3_Node000001_Node000004" class="edge">
<title>Node1&#45;&gt;Node4</title>
<g id="a_edge3_Node000001_Node000004"><a xlink:title=" ">
<path fill="none" stroke="#63b8ff" d="M114.79,-46.41C129.61,-41.72 145.28,-36.76 159.56,-32.24"/>
<polygon fill="#63b8ff" stroke="#63b8ff" points="114.09,-42.96 105.62,-49.31 116.21,-49.63 114.09,-42.96"/>
</a>
</g>
</g>
</g>
</svg>
