<?xml version="1.0" encoding="UTF-8" standalone="no"?>
<!DOCTYPE svg PUBLIC "-//W3C//DTD SVG 1.1//EN"
 "http://www.w3.org/Graphics/SVG/1.1/DTD/svg11.dtd">
<!-- Generated by graphviz version 14.1.1 (20251213.1925)
 -->
<!-- Title: LoopMax::Core::Hal::IHal_Update Pages: 1 -->
<svg width="306pt" height="128pt"
 viewBox="0.00 0.00 306.00 128.00" xmlns="http://www.w3.org/2000/svg" xmlns:xlink="http://www.w3.org/1999/xlink">
<g id="graph0" class="graph" transform="scale(1 1) rotate(0) translate(4 124)">
<title>LoopMax::Core::Hal::IHal_Update</title>
<!-- Node1 -->
<g id="Node000001" class="node">
<title>Node1</title>
<g id="a_Node000001"><a xlink:title=" ">
<polygon fill="#999999" stroke="#666666" points="103.75,-70 0,-70 0,-38 103.75,-38 103.75,-70"/>
<text xml:space="preserve" text-anchor="start" x="8" y="-56.5" font-family="Helvetica,sans-Serif" font-size="10.00">LoopMax::Core::Hal</text>
<text xml:space="preserve" text-anchor="middle" x="51.88" y="-44.5" font-family="Helvetica,sans-Serif" font-size="10.00">::IHal_Update</text>
</a>
</g>
</g>
<!-- Node2 -->
<g id="Node000002" class="node">
<title>Node2</title>
<g id="a_Node000002"><a xlink:href="class_loop_max_1_1_core_1_1_hal_1_1ard__update.html" target="_top" xlink:title=" ">
<polygon fill="white" stroke="#bfbfbf" points="270.5,-120 166.75,-120 166.75,-88 270.5,-88 270.5,-120"/>
<text xml:space="preserve" text-anchor="start" x="174.75" y="-106.5" font-family="Helvetica,sans-Serif" font-size="10.00">LoopMax::Core::Hal</text>
<text xml:space="preserve" text-anchor="middle" x="218.62" y="-94.5" font-family="Helvetica,sans-Serif" font-size="10.00">::ard_update</text>
</a>
</g>
</g>
<!-- Node1&#45;&gt;Node2 -->
<g id="edge1_Node000001_Node000002" class="edge">
<title>Node1&#45;&gt;Node2</title>
<g id="a_edge1_Node000001_Node000002"><a xlink:title=" ">
<path fill="none" stroke="#63b8ff" d="M115.03,-72.86C131.99,-78.01 150.16,-83.53 166.43,-88.46"/>
<polygon fill="#63b8ff" stroke="#63b8ff" points="116.13,-69.54 105.55,-69.99 114.1,-76.24 116.13,-69.54"/>
</a>
</g>
</g>
<!-- Node3 -->
<g id="Node000003" class="node">
<title>Node3</title>
<g id="a_Node000003"><a xlink:href="class_loop_max_1_1_core_1_1_hal_1_1idf__update.html" target="_top" xlink:title=" ">
<polygon fill="white" stroke="#bfbfbf" points="270.5,-70 166.75,-70 166.75,-38 270.5,-38 270.5,-70"/>
<text xml:space="preserve" text-anchor="start" x="174.75" y="-56.5" font-family="Helvetica,sans-Serif" font-size="10.00">LoopMax::Core::Hal</text>
<text xml:space="preserve" text-anchor="middle" x="218.62" y="-44.5" font-family="Helvetica,sans-Serif" font-size="10.00">::idf_update</text>
</a>
</g>
</g>
<!-- Node1&#45;&gt;Node3 -->
<g id="edge2_Node000001_Node000003" class="edge">
<title>Node1&#45;&gt;Node3</title>
<g id="a_edge2_Node000001_Node000003"><a xlink:title=" ">
<path fill="none" stroke="#63b8ff" d="M115.52,-54C132.34,-54 150.32,-54 166.43,-54"/>
<polygon fill="#63b8ff" stroke="#63b8ff" points="115.61,-50.5 105.61,-54 115.61,-57.5 115.61,-50.5"/>
</a>
</g>
</g>
<!-- Node4 -->
<g id="Node000004" class="node">
<title>Node4</title>
<g id="a_Node000004"><a xlink:href="class_loop_max_1_1_core_1_1_update_manager.html" target="_top" xlink:title=" ">
<polygon fill="white" stroke="#bfbfbf" points="297.5,-20 139.75,-20 139.75,0 297.5,0 297.5,-20"/>
<text xml:space="preserve" text-anchor="middle" x="218.62" y="-6.5" font-family="Helvetica,sans-Serif" font-size="10.00">LoopMax::Core::UpdateManager</text>
</a>
</g>
</g>
<!-- Node1&#45;&gt;Node4 -->
<g id="edge3_Node000001_Node000004" class="edge">
<title>Node1&#45;&gt;Node4</title>
<g id="a_edge3_Node000001_Node000004"><a xlink:title=" ">
<path fill="none" stroke="#63b8ff" d="M115.03,-35.78C123.33,-33.45 131.73,-31.13 139.75,-29 150.64,-26.1 162.44,-23.14 173.48,-20.44"/>
<polygon fill="#63b8ff" stroke="#63b8ff" points="114.35,-32.34 105.68,-38.43 116.26,-39.07 114.35,-32.34"/>
</a>
</g>
</g>
</g>
</svg>
