<?xml version="1.0" encoding="UTF-8" standalone="no"?>
<!DOCTYPE svg PUBLIC "-//W3C//DTD SVG 1.1//EN"
 "http://www.w3.org/Graphics/SVG/1.1/DTD/svg11.dtd">
<!-- Generated by graphviz version 14.1.1 (20251213.1925)
 -->
<!-- Title: LoopMax::Core::Hal::IHal_Pins Pages: 1 -->
<svg width="294pt" height="128pt"
 viewBox="0.00 0.00 294.00 128.00" xmlns="http://www.w3.org/2000/svg" xmlns:xlink="http://www.w3.org/1999/xlink">
<g id="graph0" class="graph" transform="scale(1 1) rotate(0) translate(4 124)">
<title>LoopMax::Core::Hal::IHal_Pins</title>
<!-- Node1 -->
<g id="Node000001" class="node">
<title>Node1</title>
<g id="a_Node000001"><a xlink:title=" ">
<polygon fill="#999999" stroke="#666666" points="103.75,-70 0,-70 0,-38 103.75,-38 103.75,-70"/>
<text xml:space="preserve" text-anchor="start" x="8" y="-56.5" font-family="Helvetica,sans-Serif" font-size="10.00">LoopMax::Core::Hal</text>
<text xml:space="preserve" text-anchor="middle" x="51.88" y="-44.5" font-family="Helvetica,sans-Serif" font-size="10.00">::IHal_Pins</text>
</a>
</g>
</g>
<!-- Node2 -->
<g id="Node000002" class="node">
<title>Node2</title>
<g id="a_Node000002"><a xlink:href="class_loop_max_1_1_core_1_1_hal_1_1ard__pins.html" target="_top" xlink:title=" ">
<polygon fill="white" stroke="#bfbfbf" points="264.5,-120 160.75,-120 160.75,-88 264.5,-88 264.5,-120"/>
<text xml:space="preserve" text-anchor="start" x="168.75" y="-106.5" font-family="Helvetica,sans-Serif" font-size="10.00">LoopMax::Core::Hal</text>
<text xml:space="preserve" text-anchor="middle" x="212.62" y="-94.5" font-family="Helvetica,sans-Serif" font-size="10.00">::ard_pins</text>
</a>
</g>
</g>
<!-- Node1&#45;&gt;Node2 -->
<g id="edge1_Node000001_Node000002" class="edge">
<title>Node1&#45;&gt;Node2</title>
<g id="a_edge1_Node000001_Node000002"><a xlink:title=" ">
<path fill="none" stroke="#63b8ff" d="M114.77,-73.49C129.85,-78.24 145.82,-83.27 160.35,-87.85"/>
<polygon fill="#63b8ff" stroke="#63b8ff" points="116.01,-70.22 105.42,-70.55 113.91,-76.89 116.01,-70.22"/>
</a>
</g>
</g>
<!-- Node3 -->
<g id="Node000003" class="node">
<title>Node3</title>
<g id="a_Node000003"><a xlink:href="class_loop_max_1_1_core_1_1_hal_1_1idf__pins.html" target="_top" xlink:title=" ">
<polygon fill="white" stroke="#bfbfbf" points="264.5,-70 160.75,-70 160.75,-38 264.5,-38 264.5,-70"/>
<text xml:space="preserve" text-anchor="start" x="168.75" y="-56.5" font-family="Helvetica,sans-Serif" font-size="10.00">LoopMax::Core::Hal</text>
<text xml:space="preserve" text-anchor="middle" x="212.62" y="-44.5" font-family="Helvetica,sans-Serif" font-size="10.00">::idf_pins</text>
</a>
</g>
</g>
<!-- Node1&#45;&gt;Node3 -->
<g id="edge2_Node000001_Node000003" class="edge">
<title>Node1&#45;&gt;Node3</title>
<g id="a_edge2_Node000001_Node000003"><a xlink:title=" ">
<path fill="none" stroke="#63b8ff" d="M115.21,-54C130.16,-54 145.96,-54 160.35,-54"/>
<polygon fill="#63b8ff" stroke="#63b8ff" points="115.49,-50.5 105.49,-54 115.49,-57.5 115.49,-50.5"/>
</a>
</g>
</g>
<!-- Node4 -->
<g id="Node000004" class="node">
<title>Node4</title>
<g id="a_Node000004"><a xlink:href="class_loop_max_1_1_core_1_1_pins_manager.html" target="_top" xlink:title=" ">
<polygon fill="white" stroke="#bfbfbf" points="285.5,-20 139.75,-20 139.75,0 285.5,0 285.5,-20"/>
<text xml:space="preserve" text-anchor="middle" x="212.62" y="-6.5" font-family="Helvetica,sans-Serif" font-size="10.00">LoopMax::Core::PinsManager</text>
</a>
</g>
</g>
<!-- Node1&#45;&gt;Node4 -->
<g id="edge3_Node000001_Node000004" class="edge">
<title>Node1&#45;&gt;Node4</title>
<g id="a_edge3_Node000001_Node000004"><a xlink:title=" ">
<path fill="none" stroke="#63b8ff" d="M114.74,-36.02C123.14,-33.63 131.65,-31.24 139.75,-29 149.95,-26.18 160.99,-23.22 171.29,-20.5"/>
<polygon fill="#63b8ff" stroke="#63b8ff" points="113.92,-32.61 105.27,-38.72 115.85,-39.34 113.92,-32.61"/>
</a>
</g>
</g>
</g>
</svg>
