<?xml version="1.0" encoding="UTF-8" standalone="no"?>
<!DOCTYPE svg PUBLIC "-//W3C//DTD SVG 1.1//EN"
 "http://www.w3.org/Graphics/SVG/1.1/DTD/svg11.dtd">
<!-- Generated by graphviz version 14.1.1 (20251213.1925)
 -->
<!-- Title: LoopMax::Core::SerialManager Pages: 1 -->
<svg width="320pt" height="178pt"
 viewBox="0.00 0.00 320.00 178.00" xmlns="http://www.w3.org/2000/svg" xmlns:xlink="http://www.w3.org/1999/xlink">
<g id="graph0" class="graph" transform="scale(1 1) rotate(0) translate(4 174)">
<title>LoopMax::Core::SerialManager</title>
<!-- Node1 -->
<g id="Node000001" class="node">
<title>Node1</title>
<g id="a_Node000001"><a xlink:title=" ">
<polygon fill="#999999" stroke="#666666" points="311.75,-101 160.75,-101 160.75,-81 311.75,-81 311.75,-101"/>
<text xml:space="preserve" text-anchor="middle" x="236.25" y="-87.5" font-family="Helvetica,sans-Serif" font-size="10.00">LoopMax::Core::SerialManager</text>
</a>
</g>
</g>
<!-- Node2 -->
<g id="Node000002" class="node">
<title>Node2</title>
<g id="a_Node000002"><a xlink:href="class_loop_max_1_1_core_1_1_i_service.html" target="_top" xlink:title=" ">
<polygon fill="white" stroke="#bfbfbf" points="124.75,-170 0,-170 0,-150 124.75,-150 124.75,-170"/>
<text xml:space="preserve" text-anchor="middle" x="62.38" y="-156.5" font-family="Helvetica,sans-Serif" font-size="10.00">LoopMax::Core::IService</text>
</a>
</g>
</g>
<!-- Node2&#45;&gt;Node1 -->
<g id="edge1_Node000001_Node000002" class="edge">
<title>Node2&#45;&gt;Node1</title>
<g id="a_edge1_Node000001_Node000002"><a xlink:title=" ">
<path fill="none" stroke="#63b8ff" d="M110.32,-146.13C115.22,-144.48 120.11,-142.76 124.75,-141 156.64,-128.9 192.42,-112.09 214.4,-101.38"/>
<polygon fill="#63b8ff" stroke="#63b8ff" points="109.53,-142.71 101.09,-149.12 111.69,-149.37 109.53,-142.71"/>
</a>
</g>
</g>
<!-- Node3 -->
<g id="Node000003" class="node">
<title>Node3</title>
<g id="a_Node000003"><a xlink:href="class_loop_max_1_1_core_1_1_hal_1_1_i_hal___serial.html" target="_top" xlink:title=" ">
<polygon fill="white" stroke="#bfbfbf" points="114.25,-132 10.5,-132 10.5,-100 114.25,-100 114.25,-132"/>
<text xml:space="preserve" text-anchor="start" x="18.5" y="-118.5" font-family="Helvetica,sans-Serif" font-size="10.00">LoopMax::Core::Hal</text>
<text xml:space="preserve" text-anchor="middle" x="62.38" y="-106.5" font-family="Helvetica,sans-Serif" font-size="10.00">::IHal_Serial</text>
</a>
</g>
</g>
<!-- Node3&#45;&gt;Node1 -->
<g id="edge2_Node000001_Node000003" class="edge">
<title>Node3&#45;&gt;Node1</title>
<g id="a_edge2_Node000001_Node000003"><a xlink:title=" ">
<path fill="none" stroke="#63b8ff" d="M125.52,-106.96C137.8,-105.17 150.78,-103.29 163.35,-101.46"/>
<polygon fill="#63b8ff" stroke="#63b8ff" points="125.37,-103.45 115.98,-108.35 126.38,-110.37 125.37,-103.45"/>
</a>
</g>
</g>
<!-- Node4 -->
<g id="Node000004" class="node">
<title>Node4</title>
<g id="a_Node000004"><a xlink:href="class_loop_max_1_1_services_1_1_i_log_sink.html" target="_top" xlink:title=" ">
<polygon fill="white" stroke="#bfbfbf" points="115.38,-82 9.38,-82 9.38,-50 115.38,-50 115.38,-82"/>
<text xml:space="preserve" text-anchor="start" x="17.38" y="-68.5" font-family="Helvetica,sans-Serif" font-size="10.00">LoopMax::Services::</text>
<text xml:space="preserve" text-anchor="middle" x="62.38" y="-56.5" font-family="Helvetica,sans-Serif" font-size="10.00">ILogSink</text>
</a>
</g>
</g>
<!-- Node4&#45;&gt;Node1 -->
<g id="edge3_Node000001_Node000004" class="edge">
<title>Node4&#45;&gt;Node1</title>
<g id="a_edge3_Node000001_Node000004"><a xlink:title=" ">
<path fill="none" stroke="#63b8ff" d="M126.58,-75.19C138.46,-76.92 150.97,-78.74 163.1,-80.51"/>
<polygon fill="#63b8ff" stroke="#63b8ff" points="127.31,-71.76 116.91,-73.79 126.3,-78.69 127.31,-71.76"/>
</a>
</g>
</g>
<!-- Node5 -->
<g id="Node000005" class="node">
<title>Node5</title>
<g id="a_Node000005"><a xlink:href="class_loop_max_1_1_services_1_1_i_serial.html" target="_top" xlink:title=" ">
<polygon fill="white" stroke="#bfbfbf" points="115.38,-32 9.38,-32 9.38,0 115.38,0 115.38,-32"/>
<text xml:space="preserve" text-anchor="start" x="17.38" y="-18.5" font-family="Helvetica,sans-Serif" font-size="10.00">LoopMax::Services::</text>
<text xml:space="preserve" text-anchor="middle" x="62.38" y="-6.5" font-family="Helvetica,sans-Serif" font-size="10.00">ISerial</text>
</a>
</g>
</g>
<!-- Node5&#45;&gt;Node1 -->
<g id="edge4_Node000001_Node000005" class="edge">
<title>Node5&#45;&gt;Node1</title>
<g id="a_edge4_Node000001_Node000005"><a xlink:title=" ">
<path fill="none" stroke="#63b8ff" d="M114.99,-36.86C118.3,-38.25 121.58,-39.64 124.75,-41 155.51,-54.22 190.69,-70.3 212.93,-80.6"/>
<polygon fill="#63b8ff" stroke="#63b8ff" points="116.38,-33.64 105.8,-33.04 113.69,-40.11 116.38,-33.64"/>
</a>
</g>
</g>
</g>
</svg>
