<?xml version="1.0" encoding="UTF-8" standalone="no"?>
<!DOCTYPE svg PUBLIC "-//W3C//DTD SVG 1.1//EN"
 "http://www.w3.org/Graphics/SVG/1.1/DTD/svg11.dtd">
<!-- Generated by graphviz version 14.1.1 (20251213.1925)
 -->
<!-- Title: Graphical Class Hierarchy Pages: 1 -->
<svg width="206pt" height="90pt"
 viewBox="0.00 0.00 206.00 90.00" xmlns="http://www.w3.org/2000/svg" xmlns:xlink="http://www.w3.org/1999/xlink">
<g id="graph0" class="graph" transform="scale(1 1) rotate(0) translate(4 86)">
<title>Graphical Class Hierarchy</title>
<!-- Node0 -->
<g id="Node000000" class="node">
<title>Node0</title>
<g id="a_Node000000"><a xlink:title=" ">
<polygon fill="#e0e0e0" stroke="#999999" points="58,-51 0,-51 0,-31 58,-31 58,-51"/>
<text xml:space="preserve" text-anchor="middle" x="29" y="-37.5" font-family="Helvetica,sans-Serif" font-size="10.00">ITask_hal</text>
</a>
</g>
</g>
<!-- Node1 -->
<g id="Node000001" class="node">
<title>Node1</title>
<g id="a_Node000001"><a xlink:href="class_loop_max_1_1_core_1_1_hal_1_1idf__task.html" target="_top" xlink:title=" ">
<polygon fill="white" stroke="#666666" points="197.75,-82 94,-82 94,-50 197.75,-50 197.75,-82"/>
<text xml:space="preserve" text-anchor="start" x="102" y="-68.5" font-family="Helvetica,sans-Serif" font-size="10.00">LoopMax::Core::Hal</text>
<text xml:space="preserve" text-anchor="middle" x="145.88" y="-56.5" font-family="Helvetica,sans-Serif" font-size="10.00">::idf_task</text>
</a>
</g>
</g>
<!-- Node0&#45;&gt;Node1 -->
<g id="edge1_Node000000_Node000001" class="edge">
<title>Node0&#45;&gt;Node1</title>
<g id="a_edge1_Node000000_Node000001"><a xlink:title=" ">
<path fill="none" stroke="#63b8ff" d="M69.64,-49.63C77.34,-51.3 85.51,-53.08 93.53,-54.83"/>
<polygon fill="#63b8ff" stroke="#63b8ff" points="70.39,-46.21 59.87,-47.5 68.9,-53.05 70.39,-46.21"/>
</a>
</g>
</g>
<!-- Node2 -->
<g id="Node000002" class="node">
<title>Node2</title>
<g id="a_Node000002"><a xlink:href="class_loop_max_1_1_core_1_1_hal_1_1idf__task__rtos.html" target="_top" xlink:title=" ">
<polygon fill="white" stroke="#666666" points="197.75,-32 94,-32 94,0 197.75,0 197.75,-32"/>
<text xml:space="preserve" text-anchor="start" x="102" y="-18.5" font-family="Helvetica,sans-Serif" font-size="10.00">LoopMax::Core::Hal</text>
<text xml:space="preserve" text-anchor="middle" x="145.88" y="-6.5" font-family="Helvetica,sans-Serif" font-size="10.00">::idf_task_rtos</text>
</a>
</g>
</g>
<!-- Node0&#45;&gt;Node2 -->
<g id="edge2_Node000000_Node000002" class="edge">
<title>Node0&#45;&gt;Node2</title>
<g id="a_edge2_Node000000_Node000002"><a xlink:title=" ">
<path fill="none" stroke="#63b8ff" d="M69.64,-32.37C77.34,-30.7 85.51,-28.92 93.53,-27.17"/>
<polygon fill="#63b8ff" stroke="#63b8ff" points="68.9,-28.95 59.87,-34.5 70.39,-35.79 68.9,-28.95"/>
</a>
</g>
</g>
</g>
</svg>
