<?xml version="1.0" encoding="UTF-8" standalone="no"?>
<!DOCTYPE svg PUBLIC "-//W3C//DTD SVG 1.1//EN"
 "http://www.w3.org/Graphics/SVG/1.1/DTD/svg11.dtd">
<!-- Generated by graphviz version 14.1.1 (20251213.1925)
 -->
<!-- Title: Graphical Class Hierarchy Pages: 1 -->
<svg width="252pt" height="90pt"
 viewBox="0.00 0.00 252.00 90.00" xmlns="http://www.w3.org/2000/svg" xmlns:xlink="http://www.w3.org/1999/xlink">
<g id="graph0" class="graph" transform="scale(1 1) rotate(0) translate(4 86)">
<title>Graphical Class Hierarchy</title>
<!-- Node0 -->
<g id="Node000000" class="node">
<title>Node0</title>
<g id="a_Node000000"><a xlink:href="class_loop_max_1_1_core_1_1_hal_1_1_i_hal___task.html" target="_top" xlink:title=" ">
<polygon fill="white" stroke="#666666" points="103.75,-57 0,-57 0,-25 103.75,-25 103.75,-57"/>
<text xml:space="preserve" text-anchor="start" x="8" y="-43.5" font-family="Helvetica,sans-Serif" font-size="10.00">LoopMax::Core::Hal</text>
<text xml:space="preserve" text-anchor="middle" x="51.88" y="-31.5" font-family="Helvetica,sans-Serif" font-size="10.00">::IHal_Task</text>
</a>
</g>
</g>
<!-- Node1 -->
<g id="Node000001" class="node">
<title>Node1</title>
<g id="a_Node000001"><a xlink:href="class_loop_max_1_1_core_1_1_hal_1_1ard__task.html" target="_top" xlink:title=" ">
<polygon fill="white" stroke="#666666" points="243.5,-82 139.75,-82 139.75,-50 243.5,-50 243.5,-82"/>
<text xml:space="preserve" text-anchor="start" x="147.75" y="-68.5" font-family="Helvetica,sans-Serif" font-size="10.00">LoopMax::Core::Hal</text>
<text xml:space="preserve" text-anchor="middle" x="191.62" y="-56.5" font-family="Helvetica,sans-Serif" font-size="10.00">::ard_task</text>
</a>
</g>
</g>
<!-- Node0&#45;&gt;Node1 -->
<g id="edge3_Node000000_Node000001" class="edge">
<title>Node0&#45;&gt;Node1</title>
<g id="a_edge3_Node000000_Node000001"><a xlink:title=" ">
<path fill="none" stroke="#63b8ff" d="M115.36,-52.34C123.37,-53.79 131.49,-55.27 139.29,-56.68"/>
<polygon fill="#63b8ff" stroke="#63b8ff" points="116.12,-48.92 105.66,-50.58 114.87,-55.81 116.12,-48.92"/>
</a>
</g>
</g>
<!-- Node2 -->
<g id="Node000002" class="node">
<title>Node2</title>
<g id="a_Node000002"><a xlink:href="class_loop_max_1_1_core_1_1_hal_1_1ard__task__rtos.html" target="_top" xlink:title=" ">
<polygon fill="white" stroke="#666666" points="243.5,-32 139.75,-32 139.75,0 243.5,0 243.5,-32"/>
<text xml:space="preserve" text-anchor="start" x="147.75" y="-18.5" font-family="Helvetica,sans-Serif" font-size="10.00">LoopMax::Core::Hal</text>
<text xml:space="preserve" text-anchor="middle" x="191.62" y="-6.5" font-family="Helvetica,sans-Serif" font-size="10.00">::ard_task_rtos</text>
</a>
</g>
</g>
<!-- Node0&#45;&gt;Node2 -->
<g id="edge4_Node000000_Node000002" class="edge">
<title>Node0&#45;&gt;Node2</title>
<g id="a_edge4_Node000000_Node000002"><a xlink:title=" ">
<path fill="none" stroke="#63b8ff" d="M115.36,-29.66C123.37,-28.21 131.49,-26.73 139.29,-25.32"/>
<polygon fill="#63b8ff" stroke="#63b8ff" points="114.87,-26.19 105.66,-31.42 116.12,-33.08 114.87,-26.19"/>
</a>
</g>
</g>
</g>
</svg>
