<?xml version="1.0" encoding="UTF-8" standalone="no"?>
<!DOCTYPE svg PUBLIC "-//W3C//DTD SVG 1.1//EN"
 "http://www.w3.org/Graphics/SVG/1.1/DTD/svg11.dtd">
<!-- Generated by graphviz version 14.1.1 (20251213.1925)
 -->
<!-- Title: LoopMax::Types::IModuleData Pages: 1 -->
<svg width="304pt" height="102pt"
 viewBox="0.00 0.00 304.00 102.00" xmlns="http://www.w3.org/2000/svg" xmlns:xlink="http://www.w3.org/1999/xlink">
<g id="graph0" class="graph" transform="scale(1 1) rotate(0) translate(4 98)">
<title>LoopMax::Types::IModuleData</title>
<!-- Node1 -->
<g id="Node000001" class="node">
<title>Node1</title>
<g id="a_Node000001"><a xlink:title=" ">
<polygon fill="#999999" stroke="#666666" points="222.25,-20 72.75,-20 72.75,0 222.25,0 222.25,-20"/>
<text xml:space="preserve" text-anchor="middle" x="147.5" y="-6.5" font-family="Helvetica,sans-Serif" font-size="10.00">LoopMax::Types::IModuleData</text>
</a>
</g>
</g>
<!-- Node2 -->
<g id="Node000002" class="node">
<title>Node2</title>
<g id="a_Node000002"><a xlink:href="struct_loop_max_1_1_types_1_1_https_data.html" target="_top" xlink:title=" ">
<polygon fill="white" stroke="#bfbfbf" points="139,-94 0,-94 0,-74 139,-74 139,-94"/>
<text xml:space="preserve" text-anchor="middle" x="69.5" y="-80.5" font-family="Helvetica,sans-Serif" font-size="10.00">LoopMax::Types::HttpsData</text>
</a>
</g>
</g>
<!-- Node2&#45;&gt;Node1 -->
<g id="edge1_Node000001_Node000002" class="edge">
<title>Node2&#45;&gt;Node1</title>
<g id="a_edge1_Node000001_Node000002"><a xlink:title=" ">
<path fill="none" stroke="#9a32cd" stroke-dasharray="5,2" d="M88.02,-65.9C103.54,-51.58 125.1,-31.68 137.55,-20.19"/>
<polygon fill="#9a32cd" stroke="#9a32cd" points="85.78,-63.21 80.81,-72.56 90.53,-68.35 85.78,-63.21"/>
</a>
</g>
<text xml:space="preserve" text-anchor="start" x="120.78" y="-43.5" font-family="Helvetica,sans-Serif" font-size="10.00" fill="grey">httpsData</text>
</g>
<!-- Node3 -->
<g id="Node000003" class="node">
<title>Node3</title>
<g id="a_Node000003"><a xlink:href="struct_loop_max_1_1_types_1_1_mqtts_data.html" target="_top" xlink:title=" ">
<polygon fill="white" stroke="#bfbfbf" points="296.38,-94 156.62,-94 156.62,-74 296.38,-74 296.38,-94"/>
<text xml:space="preserve" text-anchor="middle" x="226.5" y="-80.5" font-family="Helvetica,sans-Serif" font-size="10.00">LoopMax::Types::MqttsData</text>
</a>
</g>
</g>
<!-- Node3&#45;&gt;Node1 -->
<g id="edge2_Node000001_Node000003" class="edge">
<title>Node3&#45;&gt;Node1</title>
<g id="a_edge2_Node000001_Node000003"><a xlink:title=" ">
<path fill="none" stroke="#9a32cd" stroke-dasharray="5,2" d="M207.79,-65.95C192.17,-51.71 170.49,-31.95 157.83,-20.42"/>
<polygon fill="#9a32cd" stroke="#9a32cd" points="205.3,-68.42 215.05,-72.57 210.02,-63.24 205.3,-68.42"/>
</a>
</g>
<text xml:space="preserve" text-anchor="start" x="199.4" y="-43.5" font-family="Helvetica,sans-Serif" font-size="10.00" fill="grey">mqttsData</text>
</g>
</g>
</svg>
