<?xml version="1.0" encoding="UTF-8" standalone="no"?>
<!DOCTYPE svg PUBLIC "-//W3C//DTD SVG 1.1//EN"
 "http://www.w3.org/Graphics/SVG/1.1/DTD/svg11.dtd">
<!-- Generated by graphviz version 14.1.1 (20251213.1925)
 -->
<!-- Title: LoopMax::Core::Hal::IHal_Storage Pages: 1 -->
<svg width="308pt" height="128pt"
 viewBox="0.00 0.00 308.00 128.00" xmlns="http://www.w3.org/2000/svg" xmlns:xlink="http://www.w3.org/1999/xlink">
<g id="graph0" class="graph" transform="scale(1 1) rotate(0) translate(4 124)">
<title>LoopMax::Core::Hal::IHal_Storage</title>
<!-- Node1 -->
<g id="Node000001" class="node">
<title>Node1</title>
<g id="a_Node000001"><a xlink:title=" ">
<polygon fill="#999999" stroke="#666666" points="103.75,-70 0,-70 0,-38 103.75,-38 103.75,-70"/>
<text xml:space="preserve" text-anchor="start" x="8" y="-56.5" font-family="Helvetica,sans-Serif" font-size="10.00">LoopMax::Core::Hal</text>
<text xml:space="preserve" text-anchor="middle" x="51.88" y="-44.5" font-family="Helvetica,sans-Serif" font-size="10.00">::IHal_Storage</text>
</a>
</g>
</g>
<!-- Node2 -->
<g id="Node000002" class="node">
<title>Node2</title>
<g id="a_Node000002"><a xlink:href="class_loop_max_1_1_core_1_1_hal_1_1ard__storage__littlefs.html" target="_top" xlink:title=" ">
<polygon fill="white" stroke="#bfbfbf" points="272,-120 167.5,-120 167.5,-88 272,-88 272,-120"/>
<text xml:space="preserve" text-anchor="start" x="175.5" y="-106.5" font-family="Helvetica,sans-Serif" font-size="10.00">LoopMax::Core::Hal</text>
<text xml:space="preserve" text-anchor="middle" x="219.75" y="-94.5" font-family="Helvetica,sans-Serif" font-size="10.00">::ard_storage_littlefs</text>
</a>
</g>
</g>
<!-- Node1&#45;&gt;Node2 -->
<g id="edge1_Node000001_Node000002" class="edge">
<title>Node1&#45;&gt;Node2</title>
<g id="a_edge1_Node000001_Node000002"><a xlink:title=" ">
<path fill="none" stroke="#63b8ff" d="M114.58,-72.6C131.91,-77.82 150.56,-83.45 167.23,-88.47"/>
<polygon fill="#63b8ff" stroke="#63b8ff" points="116.03,-69.38 105.45,-69.85 114.01,-76.08 116.03,-69.38"/>
</a>
</g>
</g>
<!-- Node3 -->
<g id="Node000003" class="node">
<title>Node3</title>
<g id="a_Node000003"><a xlink:href="class_loop_max_1_1_core_1_1_hal_1_1idf__storage__littlefs.html" target="_top" xlink:title=" ">
<polygon fill="white" stroke="#bfbfbf" points="271.62,-70 167.88,-70 167.88,-38 271.62,-38 271.62,-70"/>
<text xml:space="preserve" text-anchor="start" x="175.88" y="-56.5" font-family="Helvetica,sans-Serif" font-size="10.00">LoopMax::Core::Hal</text>
<text xml:space="preserve" text-anchor="middle" x="219.75" y="-44.5" font-family="Helvetica,sans-Serif" font-size="10.00">::idf_storage_littlefs</text>
</a>
</g>
</g>
<!-- Node1&#45;&gt;Node3 -->
<g id="edge2_Node000001_Node000003" class="edge">
<title>Node1&#45;&gt;Node3</title>
<g id="a_edge2_Node000001_Node000003"><a xlink:title=" ">
<path fill="none" stroke="#63b8ff" d="M115.13,-54C132.4,-54 150.95,-54 167.51,-54"/>
<polygon fill="#63b8ff" stroke="#63b8ff" points="115.51,-50.5 105.51,-54 115.51,-57.5 115.51,-50.5"/>
</a>
</g>
</g>
<!-- Node4 -->
<g id="Node000004" class="node">
<title>Node4</title>
<g id="a_Node000004"><a xlink:href="class_loop_max_1_1_core_1_1_storage_manager.html" target="_top" xlink:title=" ">
<polygon fill="white" stroke="#bfbfbf" points="299.75,-20 139.75,-20 139.75,0 299.75,0 299.75,-20"/>
<text xml:space="preserve" text-anchor="middle" x="219.75" y="-6.5" font-family="Helvetica,sans-Serif" font-size="10.00">LoopMax::Core::StorageManager</text>
</a>
</g>
</g>
<!-- Node1&#45;&gt;Node4 -->
<g id="edge3_Node000001_Node000004" class="edge">
<title>Node1&#45;&gt;Node4</title>
<g id="a_edge3_Node000001_Node000004"><a xlink:title=" ">
<path fill="none" stroke="#63b8ff" d="M115.02,-35.76C123.32,-33.43 131.73,-31.12 139.75,-29 150.8,-26.08 162.76,-23.11 173.96,-20.41"/>
<polygon fill="#63b8ff" stroke="#63b8ff" points="114.34,-32.31 105.68,-38.4 116.25,-39.04 114.34,-32.31"/>
</a>
</g>
</g>
</g>
</svg>
