<?xml version="1.0" encoding="UTF-8" standalone="no"?>
<!DOCTYPE svg PUBLIC "-//W3C//DTD SVG 1.1//EN"
 "http://www.w3.org/Graphics/SVG/1.1/DTD/svg11.dtd">
<!-- Generated by graphviz version 14.1.1 (20251213.1925)
 -->
<!-- Title: LoopMax::Core::StorageManager Pages: 1 -->
<svg width="254pt" height="96pt"
 viewBox="0.00 0.00 254.00 96.00" xmlns="http://www.w3.org/2000/svg" xmlns:xlink="http://www.w3.org/1999/xlink">
<g id="graph0" class="graph" transform="scale(1 1) rotate(0) translate(4 92)">
<title>LoopMax::Core::StorageManager</title>
<!-- Node1 -->
<g id="Node000001" class="node">
<title>Node1</title>
<g id="a_Node000001"><a xlink:title=" ">
<polygon fill="#999999" stroke="#666666" points="208.38,-20 48.38,-20 48.38,0 208.38,0 208.38,-20"/>
<text xml:space="preserve" text-anchor="middle" x="128.38" y="-6.5" font-family="Helvetica,sans-Serif" font-size="10.00">LoopMax::Core::StorageManager</text>
</a>
</g>
</g>
<!-- Node2 -->
<g id="Node000002" class="node">
<title>Node2</title>
<g id="a_Node000002"><a xlink:href="class_loop_max_1_1_core_1_1_i_service.html" target="_top" xlink:title=" ">
<polygon fill="white" stroke="#bfbfbf" points="124.75,-82 0,-82 0,-62 124.75,-62 124.75,-82"/>
<text xml:space="preserve" text-anchor="middle" x="62.38" y="-68.5" font-family="Helvetica,sans-Serif" font-size="10.00">LoopMax::Core::IService</text>
</a>
</g>
</g>
<!-- Node2&#45;&gt;Node1 -->
<g id="edge1_Node000001_Node000002" class="edge">
<title>Node2&#45;&gt;Node1</title>
<g id="a_edge1_Node000001_Node000002"><a xlink:title=" ">
<path fill="none" stroke="#63b8ff" d="M81.18,-53.9C93.28,-42.91 108.52,-29.05 118.35,-20.11"/>
<polygon fill="#63b8ff" stroke="#63b8ff" points="78.85,-51.29 73.81,-60.61 83.56,-56.47 78.85,-51.29"/>
</a>
</g>
</g>
<!-- Node3 -->
<g id="Node000003" class="node">
<title>Node3</title>
<g id="a_Node000003"><a xlink:href="class_loop_max_1_1_core_1_1_hal_1_1_i_hal___storage.html" target="_top" xlink:title=" ">
<polygon fill="white" stroke="#bfbfbf" points="246.25,-88 142.5,-88 142.5,-56 246.25,-56 246.25,-88"/>
<text xml:space="preserve" text-anchor="start" x="150.5" y="-74.5" font-family="Helvetica,sans-Serif" font-size="10.00">LoopMax::Core::Hal</text>
<text xml:space="preserve" text-anchor="middle" x="194.38" y="-62.5" font-family="Helvetica,sans-Serif" font-size="10.00">::IHal_Storage</text>
</a>
</g>
</g>
<!-- Node3&#45;&gt;Node1 -->
<g id="edge2_Node000001_Node000003" class="edge">
<title>Node3&#45;&gt;Node1</title>
<g id="a_edge2_Node000001_Node000003"><a xlink:title=" ">
<path fill="none" stroke="#63b8ff" d="M168.9,-47.84C158.39,-38.29 146.81,-27.76 138.72,-20.41"/>
<polygon fill="#63b8ff" stroke="#63b8ff" points="166.5,-50.39 176.26,-54.53 171.21,-45.21 166.5,-50.39"/>
</a>
</g>
</g>
</g>
</svg>
