<?xml version="1.0" encoding="UTF-8" standalone="no"?>
<!DOCTYPE svg PUBLIC "-//W3C//DTD SVG 1.1//EN"
 "http://www.w3.org/Graphics/SVG/1.1/DTD/svg11.dtd">
<!-- Generated by graphviz version 14.1.1 (20251213.1925)
 -->
<!-- Title: LoopMax::Modules::IModule Pages: 1 -->
<svg width="300pt" height="152pt"
 viewBox="0.00 0.00 300.00 152.00" xmlns="http://www.w3.org/2000/svg" xmlns:xlink="http://www.w3.org/1999/xlink">
<g id="graph0" class="graph" transform="scale(1 1) rotate(0) translate(4 148)">
<title>LoopMax::Modules::IModule</title>
<!-- Node1 -->
<g id="Node000001" class="node">
<title>Node1</title>
<g id="a_Node000001"><a xlink:title=" ">
<polygon fill="#999999" stroke="#666666" points="214.88,-76 75.88,-76 75.88,-56 214.88,-56 214.88,-76"/>
<text xml:space="preserve" text-anchor="middle" x="145.38" y="-62.5" font-family="Helvetica,sans-Serif" font-size="10.00">LoopMax::Modules::IModule</text>
</a>
</g>
</g>
<!-- Node3 -->
<g id="Node000003" class="node">
<title>Node3</title>
<g id="a_Node000003"><a xlink:href="class_loop_max_1_1_modules_1_1_zappy2.html" target="_top" xlink:title=" ">
<polygon fill="white" stroke="#bfbfbf" points="136.75,-20 0,-20 0,0 136.75,0 136.75,-20"/>
<text xml:space="preserve" text-anchor="middle" x="68.38" y="-6.5" font-family="Helvetica,sans-Serif" font-size="10.00">LoopMax::Modules::Zappy2</text>
</a>
</g>
</g>
<!-- Node1&#45;&gt;Node3 -->
<g id="edge2_Node000001_Node000003" class="edge">
<title>Node1&#45;&gt;Node3</title>
<g id="a_edge2_Node000001_Node000003"><a xlink:title=" ">
<path fill="none" stroke="#63b8ff" d="M122.56,-49C109.33,-39.72 93.12,-28.35 81.89,-20.48"/>
<polygon fill="#63b8ff" stroke="#63b8ff" points="120.53,-51.85 130.72,-54.72 124.55,-46.12 120.53,-51.85"/>
</a>
</g>
</g>
<!-- Node4 -->
<g id="Node000004" class="node">
<title>Node4</title>
<g id="a_Node000004"><a xlink:href="class_loop_max_1_1_modules_1_1_zappy4.html" target="_top" xlink:title=" ">
<polygon fill="white" stroke="#bfbfbf" points="291.75,-20 155,-20 155,0 291.75,0 291.75,-20"/>
<text xml:space="preserve" text-anchor="middle" x="223.38" y="-6.5" font-family="Helvetica,sans-Serif" font-size="10.00">LoopMax::Modules::Zappy4</text>
</a>
</g>
</g>
<!-- Node1&#45;&gt;Node4 -->
<g id="edge3_Node000001_Node000004" class="edge">
<title>Node1&#45;&gt;Node4</title>
<g id="a_edge3_Node000001_Node000004"><a xlink:title=" ">
<path fill="none" stroke="#63b8ff" d="M168.09,-49.27C181.57,-39.94 198.2,-28.43 209.68,-20.48"/>
<polygon fill="#63b8ff" stroke="#63b8ff" points="166.44,-46.16 160.21,-54.73 170.42,-51.92 166.44,-46.16"/>
</a>
</g>
</g>
<!-- Node2 -->
<g id="Node000002" class="node">
<title>Node2</title>
<g id="a_Node000002"><a xlink:href="class_loop_max_1_1_services_1_1_i_log_sink.html" target="_top" xlink:title=" ">
<polygon fill="white" stroke="#bfbfbf" points="198.38,-144 92.38,-144 92.38,-112 198.38,-112 198.38,-144"/>
<text xml:space="preserve" text-anchor="start" x="100.38" y="-130.5" font-family="Helvetica,sans-Serif" font-size="10.00">LoopMax::Services::</text>
<text xml:space="preserve" text-anchor="middle" x="145.38" y="-118.5" font-family="Helvetica,sans-Serif" font-size="10.00">ILogSink</text>
</a>
</g>
</g>
<!-- Node2&#45;&gt;Node1 -->
<g id="edge1_Node000001_Node000002" class="edge">
<title>Node2&#45;&gt;Node1</title>
<g id="a_edge1_Node000001_Node000002"><a xlink:title=" ">
<path fill="none" stroke="#63b8ff" d="M145.38,-100.08C145.38,-91.6 145.38,-82.8 145.38,-76.41"/>
<polygon fill="#63b8ff" stroke="#63b8ff" points="141.88,-100.03 145.38,-110.03 148.88,-100.03 141.88,-100.03"/>
</a>
</g>
</g>
</g>
</svg>
